<svg width="417" height="291" viewBox="0 0 417 291" fill="none" xmlns="http://www.w3.org/2000/svg">
<rect x="0.792969" width="416" height="291" rx="10" fill="#18181B"/>
<rect x="361.293" y="24.5" width="44" height="44" rx="22" fill="#3F3F46" stroke="#18181B"/>
<path opacity="0.4" d="M387.31 43.8987H378.275C376.997 43.8987 376.553 43.0428 377.3 42.0028L381.818 35.6762C382.348 34.9178 383.237 34.9178 383.768 35.6762L388.285 42.0028C389.033 43.0428 388.588 43.8987 387.31 43.8987Z" fill="white"/>
<path d="M388.848 52.5001H376.736C375.025 52.5001 374.44 51.3626 375.447 49.9759L379.77 43.8984H385.815L390.137 49.9759C391.145 51.3626 390.56 52.5001 388.848 52.5001Z" fill="white"/>
<path d="M383.605 52.5V56.8333C383.605 57.2775 383.237 57.6458 382.793 57.6458C382.349 57.6458 381.98 57.2775 381.98 56.8333V52.5H383.605Z" fill="white"/>
<rect x="18.293" y="22.5" width="48" height="48" rx="24" fill="#3F3F46" stroke="#18181B"/>
<path d="M36.4414 40.3506L47.741 51.6502" stroke="#E4E4E7" stroke-width="2" stroke-linecap="round"/>
<path d="M36.4414 51.6494L47.741 40.3498" stroke="#E4E4E7" stroke-width="2" stroke-linecap="round"/>
<path d="M181.013 55L186.153 40.1H189.673L194.813 55H191.853L190.793 51.8H185.033L183.953 55H181.013ZM185.813 49.4H190.013L187.533 41.98H188.293L185.813 49.4ZM196.071 55V40.1H198.791V55H196.071ZM204.412 55V40.1H210.692C211.679 40.1 212.519 40.2733 213.212 40.62C213.919 40.9533 214.459 41.4333 214.832 42.06C215.219 42.6733 215.412 43.42 215.412 44.3C215.412 44.98 215.225 45.62 214.852 46.22C214.492 46.8067 213.912 47.2933 213.112 47.68V46.42C213.845 46.7 214.425 47.0467 214.852 47.46C215.279 47.8733 215.579 48.3333 215.752 48.84C215.925 49.3467 216.012 49.88 216.012 50.44C216.012 51.8667 215.539 52.9867 214.592 53.8C213.659 54.6 212.359 55 210.692 55H204.412ZM207.132 52.6H210.972C211.679 52.6 212.239 52.4067 212.652 52.02C213.079 51.62 213.292 51.0933 213.292 50.44C213.292 49.7867 213.079 49.26 212.652 48.86C212.239 48.46 211.679 48.26 210.972 48.26H207.132V52.6ZM207.132 45.88H210.832C211.392 45.88 211.839 45.72 212.172 45.4C212.505 45.0667 212.672 44.64 212.672 44.12C212.672 43.6 212.505 43.1867 212.172 42.88C211.839 42.5733 211.392 42.42 210.832 42.42H207.132V45.88ZM225.18 55.24C224.087 55.24 223.067 55.0467 222.12 54.66C221.173 54.2733 220.347 53.7333 219.64 53.04C218.933 52.3467 218.38 51.5333 217.98 50.6C217.593 49.6533 217.4 48.6333 217.4 47.54C217.4 46.4333 217.593 45.4133 217.98 44.48C218.367 43.5467 218.913 42.7333 219.62 42.04C220.327 41.3467 221.153 40.8133 222.1 40.44C223.047 40.0533 224.073 39.86 225.18 39.86C226.287 39.86 227.313 40.0533 228.26 40.44C229.207 40.8267 230.033 41.3667 230.74 42.06C231.447 42.74 231.993 43.5467 232.38 44.48C232.78 45.4133 232.98 46.4333 232.98 47.54C232.98 48.6333 232.78 49.6533 232.38 50.6C231.98 51.5333 231.427 52.3467 230.72 53.04C230.013 53.7333 229.187 54.2733 228.24 54.66C227.307 55.0467 226.287 55.24 225.18 55.24ZM225.18 52.76C225.913 52.76 226.587 52.6333 227.2 52.38C227.813 52.1133 228.347 51.7467 228.8 51.28C229.267 50.8133 229.62 50.26 229.86 49.62C230.113 48.98 230.24 48.2867 230.24 47.54C230.24 46.7933 230.113 46.1067 229.86 45.48C229.62 44.84 229.267 44.2867 228.8 43.82C228.347 43.34 227.813 42.9733 227.2 42.72C226.587 42.4667 225.913 42.34 225.18 42.34C224.46 42.34 223.793 42.4667 223.18 42.72C222.567 42.9733 222.027 43.34 221.56 43.82C221.107 44.2867 220.753 44.84 220.5 45.48C220.247 46.1067 220.12 46.7933 220.12 47.54C220.12 48.2867 220.247 48.98 220.5 49.62C220.753 50.26 221.107 50.8133 221.56 51.28C222.027 51.7467 222.567 52.1133 223.18 52.38C223.793 52.6333 224.46 52.76 225.18 52.76ZM237.033 55V42.5H233.173V40.1H243.573V42.5H239.773V55H237.033Z" fill="white"/>
<rect x="18.293" y="208.5" width="318" height="58" rx="29" fill="#18181B" stroke="#3F3F46"/>
<path d="M40.831 244V234.62H37.947V233.57H44.807V234.62H41.951V244H40.831ZM45.6285 247.08C45.4792 247.08 45.3252 247.066 45.1665 247.038C45.0172 247.019 44.8678 246.982 44.7185 246.926V245.946C44.8118 245.955 44.9285 245.969 45.0685 245.988C45.2178 246.016 45.3672 246.03 45.5165 246.03C45.9738 246.03 46.3238 245.932 46.5665 245.736C46.8092 245.549 47.0472 245.185 47.2805 244.644L47.7565 243.524L47.7285 244.448L44.5505 236.496H45.6845L48.2885 243.062H47.9945L50.5845 236.496H51.7465L48.3165 244.952C48.1672 245.316 47.9758 245.661 47.7425 245.988C47.5185 246.315 47.2338 246.576 46.8885 246.772C46.5432 246.977 46.1232 247.08 45.6285 247.08ZM52.9803 246.8V236.496H54.0303V238.176L53.8623 237.882C54.161 237.406 54.5577 237.028 55.0523 236.748C55.5563 236.468 56.1303 236.328 56.7743 236.328C57.4837 236.328 58.1137 236.501 58.6643 236.846C59.2243 237.182 59.663 237.644 59.9803 238.232C60.307 238.82 60.4703 239.492 60.4703 240.248C60.4703 240.995 60.307 241.667 59.9803 242.264C59.663 242.852 59.2243 243.319 58.6643 243.664C58.1137 244 57.4837 244.168 56.7743 244.168C56.1303 244.168 55.547 244.023 55.0243 243.734C54.511 243.435 54.1237 243.015 53.8623 242.474L54.0303 242.32V246.8H52.9803ZM56.7183 243.118C57.2223 243.118 57.6703 242.992 58.0623 242.74C58.4637 242.488 58.7763 242.147 59.0003 241.718C59.2337 241.279 59.3503 240.789 59.3503 240.248C59.3503 239.697 59.2337 239.207 59.0003 238.778C58.7763 238.349 58.4637 238.008 58.0623 237.756C57.6703 237.504 57.2223 237.378 56.7183 237.378C56.2143 237.378 55.757 237.504 55.3463 237.756C54.945 238.008 54.623 238.353 54.3803 238.792C54.147 239.221 54.0303 239.707 54.0303 240.248C54.0303 240.789 54.147 241.279 54.3803 241.718C54.623 242.147 54.945 242.488 55.3463 242.74C55.757 242.992 56.2143 243.118 56.7183 243.118ZM65.7342 244.168C65.0342 244.168 64.3996 244 63.8302 243.664C63.2702 243.319 62.8269 242.847 62.5002 242.25C62.1736 241.653 62.0102 240.976 62.0102 240.22C62.0102 239.464 62.1689 238.797 62.4862 238.218C62.8036 237.63 63.2329 237.168 63.7742 236.832C64.3249 236.496 64.9409 236.328 65.6222 236.328C66.1636 236.328 66.6442 236.431 67.0642 236.636C67.4936 236.832 67.8576 237.103 68.1562 237.448C68.4549 237.784 68.6836 238.167 68.8422 238.596C69.0009 239.016 69.0802 239.45 69.0802 239.898C69.0802 239.991 69.0756 240.099 69.0662 240.22C69.0569 240.332 69.0429 240.449 69.0242 240.57H62.6822V239.59H68.4222L67.9182 240.01C68.0022 239.497 67.9416 239.039 67.7362 238.638C67.5402 238.227 67.2556 237.905 66.8822 237.672C66.5089 237.429 66.0889 237.308 65.6222 237.308C65.1556 237.308 64.7216 237.429 64.3202 237.672C63.9282 237.915 63.6202 238.255 63.3962 238.694C63.1722 239.123 63.0836 239.637 63.1302 240.234C63.0836 240.831 63.1769 241.354 63.4102 241.802C63.6529 242.241 63.9796 242.581 64.3902 242.824C64.8102 243.067 65.2582 243.188 65.7342 243.188C66.2849 243.188 66.7469 243.057 67.1202 242.796C67.4936 242.535 67.7969 242.208 68.0302 241.816L68.9262 242.292C68.7769 242.628 68.5482 242.941 68.2402 243.23C67.9322 243.51 67.5636 243.739 67.1342 243.916C66.7142 244.084 66.2476 244.168 65.7342 244.168ZM76.9784 244.168C76.3158 244.168 75.7138 244.042 75.1724 243.79C74.6311 243.538 74.1738 243.202 73.8004 242.782C73.4271 242.353 73.1611 241.881 73.0024 241.368L74.0104 240.99C74.2531 241.699 74.6311 242.241 75.1444 242.614C75.6578 242.978 76.2691 243.16 76.9784 243.16C77.4264 243.16 77.8184 243.09 78.1544 242.95C78.4998 242.801 78.7658 242.595 78.9524 242.334C79.1391 242.073 79.2324 241.769 79.2324 241.424C79.2324 240.911 79.0924 240.514 78.8124 240.234C78.5324 239.954 78.1311 239.739 77.6084 239.59L75.7324 239.03C74.9951 238.815 74.4258 238.456 74.0244 237.952C73.6324 237.448 73.4364 236.874 73.4364 236.23C73.4364 235.679 73.5718 235.194 73.8424 234.774C74.1131 234.345 74.4818 234.009 74.9484 233.766C75.4244 233.523 75.9611 233.402 76.5584 233.402C77.1838 233.402 77.7438 233.519 78.2384 233.752C78.7424 233.976 79.1671 234.275 79.5124 234.648C79.8578 235.021 80.1051 235.437 80.2544 235.894L79.2744 236.286C79.0504 235.67 78.7004 235.203 78.2244 234.886C77.7578 234.569 77.2071 234.41 76.5724 234.41C76.1711 234.41 75.8164 234.48 75.5084 234.62C75.2098 234.76 74.9764 234.961 74.8084 235.222C74.6404 235.483 74.5564 235.791 74.5564 236.146C74.5564 236.575 74.6918 236.963 74.9624 237.308C75.2331 237.644 75.6484 237.896 76.2084 238.064L77.8604 238.554C78.6818 238.797 79.3024 239.147 79.7224 239.604C80.1424 240.061 80.3524 240.635 80.3524 241.326C80.3524 241.886 80.2078 242.381 79.9184 242.81C79.6384 243.23 79.2418 243.561 78.7284 243.804C78.2244 244.047 77.6411 244.168 76.9784 244.168ZM85.8752 244.168C85.1659 244.168 84.5219 244 83.9432 243.664C83.3645 243.319 82.9025 242.852 82.5572 242.264C82.2212 241.667 82.0532 240.99 82.0532 240.234C82.0532 239.487 82.2212 238.82 82.5572 238.232C82.8932 237.644 83.3459 237.182 83.9152 236.846C84.4939 236.501 85.1472 236.328 85.8752 236.328C86.6032 236.328 87.2519 236.496 87.8212 236.832C88.3999 237.168 88.8525 237.63 89.1792 238.218C89.5152 238.806 89.6832 239.478 89.6832 240.234C89.6832 240.999 89.5105 241.681 89.1652 242.278C88.8199 242.866 88.3579 243.328 87.7792 243.664C87.2099 244 86.5752 244.168 85.8752 244.168ZM85.8752 243.118C86.3792 243.118 86.8319 242.992 87.2332 242.74C87.6439 242.488 87.9659 242.143 88.1992 241.704C88.4419 241.265 88.5632 240.775 88.5632 240.234C88.5632 239.693 88.4419 239.207 88.1992 238.778C87.9659 238.349 87.6439 238.008 87.2332 237.756C86.8319 237.504 86.3792 237.378 85.8752 237.378C85.3712 237.378 84.9139 237.504 84.5032 237.756C84.1019 238.008 83.7799 238.349 83.5372 238.778C83.2945 239.207 83.1732 239.693 83.1732 240.234C83.1732 240.775 83.2945 241.265 83.5372 241.704C83.7799 242.143 84.1019 242.488 84.5032 242.74C84.9139 242.992 85.3712 243.118 85.8752 243.118ZM91.535 244V236.496H92.585V237.924L92.417 237.714C92.6224 237.275 92.9257 236.935 93.327 236.692C93.7377 236.449 94.1857 236.328 94.671 236.328C95.2497 236.328 95.7724 236.491 96.239 236.818C96.7057 237.145 97.037 237.569 97.233 238.092L96.939 238.106C97.1257 237.527 97.4477 237.089 97.905 236.79C98.3717 236.482 98.885 236.328 99.445 236.328C99.949 236.328 100.411 236.449 100.831 236.692C101.26 236.935 101.601 237.271 101.853 237.7C102.114 238.12 102.245 238.596 102.245 239.128V244H101.195V239.534C101.195 239.077 101.111 238.689 100.943 238.372C100.784 238.055 100.565 237.812 100.285 237.644C100.005 237.467 99.683 237.378 99.319 237.378C98.9644 237.378 98.6424 237.467 98.353 237.644C98.0637 237.812 97.835 238.059 97.667 238.386C97.499 238.703 97.415 239.086 97.415 239.534V244H96.365V239.534C96.365 239.077 96.281 238.689 96.113 238.372C95.9544 238.055 95.735 237.812 95.455 237.644C95.175 237.467 94.853 237.378 94.489 237.378C94.125 237.378 93.7984 237.467 93.509 237.644C93.229 237.812 93.005 238.059 92.837 238.386C92.669 238.703 92.585 239.086 92.585 239.534V244H91.535ZM107.666 244.168C106.966 244.168 106.331 244 105.762 243.664C105.202 243.319 104.759 242.847 104.432 242.25C104.105 241.653 103.942 240.976 103.942 240.22C103.942 239.464 104.101 238.797 104.418 238.218C104.735 237.63 105.165 237.168 105.706 236.832C106.257 236.496 106.873 236.328 107.554 236.328C108.095 236.328 108.576 236.431 108.996 236.636C109.425 236.832 109.789 237.103 110.088 237.448C110.387 237.784 110.615 238.167 110.774 238.596C110.933 239.016 111.012 239.45 111.012 239.898C111.012 239.991 111.007 240.099 110.998 240.22C110.989 240.332 110.975 240.449 110.956 240.57H104.614V239.59H110.354L109.85 240.01C109.934 239.497 109.873 239.039 109.668 238.638C109.472 238.227 109.187 237.905 108.814 237.672C108.441 237.429 108.021 237.308 107.554 237.308C107.087 237.308 106.653 237.429 106.252 237.672C105.86 237.915 105.552 238.255 105.328 238.694C105.104 239.123 105.015 239.637 105.062 240.234C105.015 240.831 105.109 241.354 105.342 241.802C105.585 242.241 105.911 242.581 106.322 242.824C106.742 243.067 107.19 243.188 107.666 243.188C108.217 243.188 108.679 243.057 109.052 242.796C109.425 242.535 109.729 242.208 109.962 241.816L110.858 242.292C110.709 242.628 110.48 242.941 110.172 243.23C109.864 243.51 109.495 243.739 109.066 243.916C108.646 244.084 108.179 244.168 107.666 244.168ZM115.733 244.084C115.061 244.084 114.543 243.888 114.179 243.496C113.815 243.104 113.633 242.544 113.633 241.816V237.546H112.247V236.496H112.597C112.914 236.496 113.166 236.393 113.353 236.188C113.54 235.973 113.633 235.707 113.633 235.39V234.76H114.683V236.496H116.335V237.546H114.683V241.816C114.683 242.068 114.72 242.292 114.795 242.488C114.87 242.675 114.996 242.824 115.173 242.936C115.36 243.048 115.607 243.104 115.915 243.104C115.99 243.104 116.078 243.099 116.181 243.09C116.284 243.081 116.372 243.071 116.447 243.062V244C116.335 244.028 116.209 244.047 116.069 244.056C115.929 244.075 115.817 244.084 115.733 244.084ZM118.291 244V233.402H119.341V237.952L119.103 237.896C119.29 237.411 119.593 237.028 120.013 236.748C120.442 236.468 120.937 236.328 121.497 236.328C122.029 236.328 122.505 236.449 122.925 236.692C123.354 236.935 123.69 237.271 123.933 237.7C124.185 238.12 124.311 238.596 124.311 239.128V244H123.261V239.534C123.261 239.077 123.177 238.689 123.009 238.372C122.841 238.055 122.608 237.812 122.309 237.644C122.02 237.467 121.688 237.378 121.315 237.378C120.942 237.378 120.606 237.467 120.307 237.644C120.008 237.812 119.77 238.059 119.593 238.386C119.425 238.703 119.341 239.086 119.341 239.534V244H118.291ZM126.316 244V236.496H127.366V244H126.316ZM126.316 235.11V233.57H127.366V235.11H126.316ZM129.516 244V236.496H130.566V237.952L130.328 237.896C130.514 237.411 130.818 237.028 131.238 236.748C131.667 236.468 132.162 236.328 132.722 236.328C133.254 236.328 133.73 236.449 134.15 236.692C134.579 236.935 134.915 237.271 135.158 237.7C135.41 238.12 135.536 238.596 135.536 239.128V244H134.486V239.534C134.486 239.077 134.402 238.689 134.234 238.372C134.075 238.055 133.846 237.812 133.548 237.644C133.258 237.467 132.922 237.378 132.54 237.378C132.157 237.378 131.816 237.467 131.518 237.644C131.219 237.812 130.986 238.059 130.818 238.386C130.65 238.703 130.566 239.086 130.566 239.534V244H129.516ZM141.097 247.08C140.584 247.08 140.108 247.001 139.669 246.842C139.24 246.683 138.866 246.464 138.549 246.184C138.241 245.913 138.003 245.596 137.835 245.232L138.801 244.714C138.95 245.069 139.216 245.377 139.599 245.638C139.982 245.899 140.472 246.03 141.069 246.03C141.526 246.03 141.946 245.941 142.329 245.764C142.712 245.587 143.02 245.325 143.253 244.98C143.486 244.635 143.603 244.21 143.603 243.706V242.04L143.771 242.194C143.51 242.735 143.122 243.155 142.609 243.454C142.096 243.743 141.536 243.888 140.929 243.888C140.229 243.888 139.599 243.72 139.039 243.384C138.479 243.048 138.036 242.595 137.709 242.026C137.392 241.447 137.233 240.808 137.233 240.108C137.233 239.399 137.392 238.759 137.709 238.19C138.036 237.621 138.474 237.168 139.025 236.832C139.585 236.496 140.22 236.328 140.929 236.328C141.536 236.328 142.086 236.468 142.581 236.748C143.085 237.028 143.482 237.406 143.771 237.882L143.603 238.176V236.496H144.653V243.706C144.653 244.35 144.499 244.924 144.191 245.428C143.892 245.941 143.472 246.343 142.931 246.632C142.399 246.931 141.788 247.08 141.097 247.08ZM140.985 242.838C141.47 242.838 141.909 242.717 142.301 242.474C142.693 242.222 143.006 241.891 143.239 241.48C143.482 241.06 143.603 240.603 143.603 240.108C143.603 239.613 143.482 239.161 143.239 238.75C143.006 238.33 142.693 237.999 142.301 237.756C141.909 237.504 141.47 237.378 140.985 237.378C140.49 237.378 140.042 237.504 139.641 237.756C139.24 237.999 138.922 238.325 138.689 238.736C138.465 239.147 138.353 239.604 138.353 240.108C138.353 240.603 138.465 241.06 138.689 241.48C138.922 241.891 139.235 242.222 139.627 242.474C140.028 242.717 140.481 242.838 140.985 242.838Z" fill="#A1A1AA"/>
<path fill-rule="evenodd" clip-rule="evenodd" d="M312.745 230.042H312.841C314.765 230.042 316.272 230.042 317.449 230.2C318.652 230.362 319.603 230.7 320.348 231.445C321.094 232.191 321.432 233.141 321.594 234.345C321.752 235.521 321.752 237.029 321.752 238.952V241.5C321.752 245.067 318.86 247.959 315.293 247.959H312.745C310.822 247.959 309.314 247.959 308.138 247.801C306.934 247.639 305.984 247.301 305.238 246.555C304.493 245.81 304.155 244.859 303.993 243.656C303.835 242.479 303.835 240.972 303.835 239.048V238.952C303.835 237.029 303.835 235.521 303.993 234.345C304.155 233.141 304.493 232.191 305.238 231.445C305.984 230.7 306.934 230.362 308.138 230.2C309.314 230.042 310.822 230.042 312.745 230.042ZM308.305 231.439C307.239 231.582 306.597 231.855 306.122 232.329C305.648 232.804 305.375 233.446 305.232 234.512C305.086 235.595 305.085 237.018 305.085 239C305.085 240.982 305.086 242.406 305.232 243.489C305.375 244.554 305.648 245.197 306.122 245.671C306.597 246.146 307.239 246.418 308.305 246.562C309.388 246.707 310.811 246.709 312.793 246.709H314.669C314.671 245.57 314.696 244.822 314.903 244.186C315.377 242.727 316.52 241.584 317.979 241.11C318.615 240.903 319.363 240.878 320.502 240.876V239C320.502 237.018 320.5 235.595 320.355 234.512C320.211 233.446 319.939 232.804 319.464 232.329C318.99 231.855 318.347 231.582 317.282 231.439C316.199 231.293 314.775 231.292 312.793 231.292C310.811 231.292 309.388 231.293 308.305 231.439ZM320.464 242.126C319.333 242.131 318.798 242.158 318.366 242.299C317.287 242.649 316.442 243.494 316.092 244.573C315.951 245.005 315.924 245.54 315.919 246.671C318.295 246.387 320.18 244.502 320.464 242.126Z" fill="#D4D4D8"/>
<rect x="345.793" y="208" width="60" height="60" rx="30" fill="url(#paint0_linear_208_3996)"/>
<path d="M370.602 232.986C370.602 231.664 371.214 230.396 372.305 229.46C373.396 228.525 374.876 228 376.419 228C377.962 228 379.441 228.525 380.532 229.46C381.623 230.396 382.236 231.664 382.236 232.986V239.858C382.236 241.181 381.623 242.449 380.532 243.384C379.441 244.319 377.962 244.845 376.419 244.845C374.876 244.845 373.396 244.319 372.305 243.384C371.214 242.449 370.602 241.181 370.602 239.858V232.986Z" fill="white" stroke="white" stroke-width="1.46657" stroke-linecap="round" stroke-linejoin="round"/>
<path d="M373.342 235.805C373.342 235.805 374.292 235.081 376.488 235.127C378.685 235.173 379.498 235.805 379.498 235.805" stroke="url(#paint1_linear_208_3996)" stroke-linecap="round"/>
<path d="M374.716 237.72C374.716 237.72 375.242 237.32 376.458 237.345C377.674 237.37 378.125 237.72 378.125 237.72" stroke="url(#paint2_linear_208_3996)" stroke-linecap="round"/>
<path d="M366.862 238.612C366.862 241.478 367.497 243.81 369.368 245.836C371.238 247.862 373.775 249 376.419 249C379.064 249 381.601 247.862 383.471 245.836C385.341 243.81 386.392 241.521 386.392 238.612" stroke="white" stroke-width="1.46657" stroke-linecap="round" stroke-linejoin="round"/>
<path d="M17.793 88C17.793 87.4477 18.2407 87 18.793 87H355.793C359.107 87 361.793 89.6863 361.793 93V147C361.793 150.314 359.107 153 355.793 153H23.793C20.4793 153 17.793 150.314 17.793 147V88Z" fill="#26262B"/>
<path d="M34.121 116V104.08H35.689V109.392H41.657V104.08H43.241V116H41.657V110.832H35.689V116H34.121ZM45.5506 116V107.376H47.0386V116H45.5506ZM45.5506 106V104.08H47.0386V106H45.5506ZM54.0491 116V105.52H50.8171V104.08H58.8171V105.52H55.6331V116H54.0491ZM59.9925 116V103.888H61.4805V109.056L61.2085 108.912C61.4218 108.368 61.7631 107.947 62.2325 107.648C62.7125 107.339 63.2725 107.184 63.9125 107.184C64.5311 107.184 65.0805 107.323 65.5605 107.6C66.0511 107.877 66.4351 108.261 66.7125 108.752C67.0005 109.243 67.1445 109.797 67.1445 110.416V116H65.6405V110.896C65.6405 110.416 65.5498 110.011 65.3685 109.68C65.1978 109.349 64.9578 109.093 64.6485 108.912C64.3391 108.72 63.9818 108.624 63.5765 108.624C63.1818 108.624 62.8245 108.72 62.5045 108.912C62.1845 109.093 61.9338 109.355 61.7525 109.696C61.5711 110.027 61.4805 110.427 61.4805 110.896V116H59.9925ZM73.0817 116.192C72.2497 116.192 71.5084 115.995 70.8577 115.6C70.2071 115.205 69.6951 114.667 69.3217 113.984C68.9484 113.291 68.7617 112.517 68.7617 111.664C68.7617 110.8 68.9431 110.032 69.3057 109.36C69.6791 108.688 70.1804 108.16 70.8097 107.776C71.4497 107.381 72.1644 107.184 72.9537 107.184C73.5937 107.184 74.1591 107.301 74.6497 107.536C75.1511 107.76 75.5724 108.069 75.9137 108.464C76.2657 108.848 76.5324 109.291 76.7137 109.792C76.9057 110.283 77.0017 110.795 77.0017 111.328C77.0017 111.445 76.9911 111.579 76.9697 111.728C76.9591 111.867 76.9431 112 76.9217 112.128H69.8497V110.848H76.0577L75.3537 111.424C75.4497 110.869 75.3964 110.373 75.1937 109.936C74.9911 109.499 74.6924 109.152 74.2977 108.896C73.9031 108.64 73.4551 108.512 72.9537 108.512C72.4524 108.512 71.9937 108.64 71.5777 108.896C71.1617 109.152 70.8364 109.52 70.6017 110C70.3777 110.469 70.2871 111.029 70.3297 111.68C70.2871 112.309 70.3831 112.864 70.6177 113.344C70.8631 113.813 71.2044 114.181 71.6417 114.448C72.0897 114.704 72.5751 114.832 73.0977 114.832C73.6737 114.832 74.1591 114.699 74.5537 114.432C74.9484 114.165 75.2684 113.824 75.5137 113.408L76.7617 114.048C76.5911 114.443 76.3244 114.805 75.9617 115.136C75.6097 115.456 75.1884 115.712 74.6977 115.904C74.2177 116.096 73.6791 116.192 73.0817 116.192ZM78.7818 116V107.376H80.2378V108.96L80.0778 108.736C80.2805 108.245 80.5898 107.883 81.0058 107.648C81.4218 107.403 81.9285 107.28 82.5258 107.28H83.0538V108.688H82.3018C81.6938 108.688 81.2032 108.88 80.8298 109.264C80.4565 109.637 80.2698 110.171 80.2698 110.864V116H78.7818ZM88.1836 116.192C87.3516 116.192 86.6103 115.995 85.9596 115.6C85.3089 115.205 84.7969 114.667 84.4236 113.984C84.0503 113.291 83.8636 112.517 83.8636 111.664C83.8636 110.8 84.0449 110.032 84.4076 109.36C84.7809 108.688 85.2823 108.16 85.9116 107.776C86.5516 107.381 87.2663 107.184 88.0556 107.184C88.6956 107.184 89.2609 107.301 89.7516 107.536C90.2529 107.76 90.6743 108.069 91.0156 108.464C91.3676 108.848 91.6343 109.291 91.8156 109.792C92.0076 110.283 92.1036 110.795 92.1036 111.328C92.1036 111.445 92.0929 111.579 92.0716 111.728C92.0609 111.867 92.0449 112 92.0236 112.128H84.9516V110.848H91.1596L90.4556 111.424C90.5516 110.869 90.4983 110.373 90.2956 109.936C90.0929 109.499 89.7943 109.152 89.3996 108.896C89.0049 108.64 88.5569 108.512 88.0556 108.512C87.5543 108.512 87.0956 108.64 86.6796 108.896C86.2636 109.152 85.9383 109.52 85.7036 110C85.4796 110.469 85.3889 111.029 85.4316 111.68C85.3889 112.309 85.4849 112.864 85.7196 113.344C85.9649 113.813 86.3063 114.181 86.7436 114.448C87.1916 114.704 87.6769 114.832 88.1996 114.832C88.7756 114.832 89.2609 114.699 89.6556 114.432C90.0503 114.165 90.3703 113.824 90.6156 113.408L91.8636 114.048C91.6929 114.443 91.4263 114.805 91.0636 115.136C90.7116 115.456 90.2903 115.712 89.7996 115.904C89.3196 116.096 88.7809 116.192 88.1836 116.192ZM96.4893 116V103.888H97.9773V109.056L97.7053 108.912C97.9187 108.368 98.26 107.947 98.7293 107.648C99.2093 107.339 99.7693 107.184 100.409 107.184C101.028 107.184 101.577 107.323 102.057 107.6C102.548 107.877 102.932 108.261 103.209 108.752C103.497 109.243 103.641 109.797 103.641 110.416V116H102.137V110.896C102.137 110.416 102.047 110.011 101.865 109.68C101.695 109.349 101.455 109.093 101.145 108.912C100.836 108.72 100.479 108.624 100.073 108.624C99.6787 108.624 99.3213 108.72 99.0013 108.912C98.6813 109.093 98.4307 109.355 98.2493 109.696C98.068 110.027 97.9773 110.427 97.9773 110.896V116H96.4893ZM109.707 116.192C108.875 116.192 108.123 116 107.451 115.616C106.779 115.221 106.245 114.683 105.851 114C105.456 113.317 105.259 112.544 105.259 111.68C105.259 110.816 105.451 110.048 105.835 109.376C106.229 108.704 106.763 108.171 107.435 107.776C108.107 107.381 108.864 107.184 109.707 107.184C110.539 107.184 111.291 107.381 111.963 107.776C112.635 108.16 113.163 108.688 113.547 109.36C113.941 110.032 114.139 110.805 114.139 111.68C114.139 112.555 113.936 113.333 113.531 114.016C113.125 114.688 112.587 115.221 111.915 115.616C111.253 116 110.517 116.192 109.707 116.192ZM109.707 114.752C110.24 114.752 110.72 114.619 111.147 114.352C111.584 114.085 111.925 113.717 112.171 113.248C112.427 112.779 112.555 112.256 112.555 111.68C112.555 111.093 112.427 110.576 112.171 110.128C111.925 109.669 111.584 109.307 111.147 109.04C110.72 108.763 110.24 108.624 109.707 108.624C109.163 108.624 108.672 108.763 108.235 109.04C107.808 109.307 107.467 109.669 107.211 110.128C106.955 110.576 106.827 111.093 106.827 111.68C106.827 112.256 106.955 112.779 107.211 113.248C107.467 113.717 107.808 114.085 108.235 114.352C108.672 114.619 109.163 114.752 109.707 114.752ZM117.747 116L114.787 107.376H116.435L118.787 114.592L118.211 114.576L120.515 107.376H121.923L124.227 114.576L123.651 114.592L126.019 107.376H127.651L124.691 116H123.267L120.995 108.8H121.443L119.171 116H117.747ZM135.427 116.192C134.585 116.192 133.833 115.995 133.171 115.6C132.521 115.205 132.009 114.667 131.635 113.984C131.262 113.301 131.075 112.533 131.075 111.68C131.075 110.816 131.262 110.048 131.635 109.376C132.009 108.704 132.521 108.171 133.171 107.776C133.833 107.381 134.585 107.184 135.427 107.184C135.993 107.184 136.521 107.285 137.011 107.488C137.502 107.691 137.934 107.963 138.307 108.304C138.681 108.645 138.953 109.045 139.123 109.504L137.795 110.144C137.593 109.696 137.283 109.333 136.867 109.056C136.451 108.768 135.971 108.624 135.427 108.624C134.905 108.624 134.43 108.757 134.003 109.024C133.587 109.291 133.257 109.653 133.011 110.112C132.766 110.571 132.643 111.099 132.643 111.696C132.643 112.272 132.766 112.795 133.011 113.264C133.257 113.723 133.587 114.085 134.003 114.352C134.43 114.619 134.905 114.752 135.427 114.752C135.971 114.752 136.451 114.613 136.867 114.336C137.283 114.048 137.593 113.669 137.795 113.2L139.123 113.872C138.953 114.32 138.681 114.72 138.307 115.072C137.934 115.413 137.502 115.685 137.011 115.888C136.521 116.091 135.993 116.192 135.427 116.192ZM143.327 116.192C142.761 116.192 142.26 116.091 141.823 115.888C141.396 115.675 141.06 115.387 140.815 115.024C140.569 114.651 140.447 114.224 140.447 113.744C140.447 113.285 140.543 112.875 140.735 112.512C140.937 112.139 141.247 111.824 141.663 111.568C142.089 111.312 142.623 111.131 143.263 111.024L146.463 110.496V111.744L143.599 112.224C143.044 112.32 142.639 112.496 142.383 112.752C142.137 113.008 142.015 113.323 142.015 113.696C142.015 114.048 142.153 114.341 142.431 114.576C142.719 114.811 143.076 114.928 143.503 114.928C144.047 114.928 144.516 114.816 144.911 114.592C145.316 114.357 145.631 114.043 145.855 113.648C146.089 113.253 146.207 112.816 146.207 112.336V110.144C146.207 109.675 146.031 109.296 145.679 109.008C145.337 108.709 144.884 108.56 144.319 108.56C143.828 108.56 143.391 108.688 143.007 108.944C142.633 109.189 142.356 109.52 142.175 109.936L140.879 109.264C141.039 108.869 141.295 108.517 141.647 108.208C141.999 107.888 142.409 107.637 142.879 107.456C143.348 107.275 143.839 107.184 144.351 107.184C145.012 107.184 145.593 107.312 146.095 107.568C146.596 107.813 146.985 108.16 147.263 108.608C147.551 109.045 147.695 109.557 147.695 110.144V116H146.239V114.368L146.511 114.464C146.329 114.805 146.084 115.104 145.775 115.36C145.465 115.616 145.103 115.819 144.687 115.968C144.271 116.117 143.817 116.192 143.327 116.192ZM149.842 116V107.376H151.298V109.056L151.058 108.912C151.271 108.368 151.613 107.947 152.082 107.648C152.562 107.339 153.122 107.184 153.762 107.184C154.381 107.184 154.93 107.323 155.41 107.6C155.901 107.877 156.285 108.261 156.562 108.752C156.85 109.243 156.994 109.797 156.994 110.416V116H155.49V110.896C155.49 110.416 155.405 110.011 155.234 109.68C155.063 109.349 154.818 109.093 154.498 108.912C154.189 108.72 153.831 108.624 153.426 108.624C153.021 108.624 152.658 108.72 152.338 108.912C152.029 109.093 151.783 109.355 151.602 109.696C151.421 110.027 151.33 110.427 151.33 110.896V116H149.842ZM161.569 116V107.376H163.057V116H161.569ZM161.569 106V104.08H163.057V106H161.569ZM171.811 116.192C170.969 116.192 170.217 115.995 169.555 115.6C168.905 115.205 168.393 114.667 168.019 113.984C167.646 113.301 167.459 112.533 167.459 111.68C167.459 110.816 167.646 110.048 168.019 109.376C168.393 108.704 168.905 108.171 169.555 107.776C170.217 107.381 170.969 107.184 171.811 107.184C172.377 107.184 172.905 107.285 173.395 107.488C173.886 107.691 174.318 107.963 174.691 108.304C175.065 108.645 175.337 109.045 175.507 109.504L174.179 110.144C173.977 109.696 173.667 109.333 173.251 109.056C172.835 108.768 172.355 108.624 171.811 108.624C171.289 108.624 170.814 108.757 170.387 109.024C169.971 109.291 169.641 109.653 169.395 110.112C169.15 110.571 169.027 111.099 169.027 111.696C169.027 112.272 169.15 112.795 169.395 113.264C169.641 113.723 169.971 114.085 170.387 114.352C170.814 114.619 171.289 114.752 171.811 114.752C172.355 114.752 172.835 114.613 173.251 114.336C173.667 114.048 173.977 113.669 174.179 113.2L175.507 113.872C175.337 114.32 175.065 114.72 174.691 115.072C174.318 115.413 173.886 115.685 173.395 115.888C172.905 116.091 172.377 116.192 171.811 116.192ZM179.71 116.192C179.145 116.192 178.644 116.091 178.206 115.888C177.78 115.675 177.444 115.387 177.198 115.024C176.953 114.651 176.83 114.224 176.83 113.744C176.83 113.285 176.926 112.875 177.118 112.512C177.321 112.139 177.63 111.824 178.046 111.568C178.473 111.312 179.006 111.131 179.646 111.024L182.846 110.496V111.744L179.982 112.224C179.428 112.32 179.022 112.496 178.766 112.752C178.521 113.008 178.398 113.323 178.398 113.696C178.398 114.048 178.537 114.341 178.814 114.576C179.102 114.811 179.46 114.928 179.886 114.928C180.43 114.928 180.9 114.816 181.294 114.592C181.7 114.357 182.014 114.043 182.238 113.648C182.473 113.253 182.59 112.816 182.59 112.336V110.144C182.59 109.675 182.414 109.296 182.062 109.008C181.721 108.709 181.268 108.56 180.702 108.56C180.212 108.56 179.774 108.688 179.39 108.944C179.017 109.189 178.74 109.52 178.558 109.936L177.262 109.264C177.422 108.869 177.678 108.517 178.03 108.208C178.382 107.888 178.793 107.637 179.262 107.456C179.732 107.275 180.222 107.184 180.734 107.184C181.396 107.184 181.977 107.312 182.478 107.568C182.98 107.813 183.369 108.16 183.646 108.608C183.934 109.045 184.078 109.557 184.078 110.144V116H182.622V114.368L182.894 114.464C182.713 114.805 182.468 115.104 182.158 115.36C181.849 115.616 181.486 115.819 181.07 115.968C180.654 116.117 180.201 116.192 179.71 116.192ZM186.226 116V107.376H187.682V109.056L187.442 108.912C187.655 108.368 187.996 107.947 188.466 107.648C188.946 107.339 189.506 107.184 190.146 107.184C190.764 107.184 191.314 107.323 191.794 107.6C192.284 107.877 192.668 108.261 192.946 108.752C193.234 109.243 193.378 109.797 193.378 110.416V116H191.874V110.896C191.874 110.416 191.788 110.011 191.618 109.68C191.447 109.349 191.202 109.093 190.882 108.912C190.572 108.72 190.215 108.624 189.81 108.624C189.404 108.624 189.042 108.72 188.722 108.912C188.412 109.093 188.167 109.355 187.986 109.696C187.804 110.027 187.714 110.427 187.714 110.896V116H186.226ZM198.416 119.52C198.224 119.52 198.032 119.504 197.84 119.472C197.648 119.451 197.467 119.403 197.296 119.328V118C197.414 118.011 197.558 118.032 197.728 118.064C197.91 118.096 198.086 118.112 198.256 118.112C198.758 118.112 199.136 118 199.392 117.776C199.659 117.552 199.91 117.173 200.144 116.64L200.688 115.344L200.656 116.64L196.976 107.376H198.592L201.456 114.736H200.976L203.824 107.376H205.472L201.584 117.024C201.403 117.483 201.168 117.904 200.88 118.288C200.603 118.672 200.262 118.971 199.856 119.184C199.451 119.408 198.971 119.52 198.416 119.52ZM210.576 116.192C209.744 116.192 208.992 116 208.32 115.616C207.648 115.221 207.115 114.683 206.72 114C206.325 113.317 206.128 112.544 206.128 111.68C206.128 110.816 206.32 110.048 206.704 109.376C207.099 108.704 207.632 108.171 208.304 107.776C208.976 107.381 209.733 107.184 210.576 107.184C211.408 107.184 212.16 107.381 212.832 107.776C213.504 108.16 214.032 108.688 214.416 109.36C214.811 110.032 215.008 110.805 215.008 111.68C215.008 112.555 214.805 113.333 214.4 114.016C213.995 114.688 213.456 115.221 212.784 115.616C212.123 116 211.387 116.192 210.576 116.192ZM210.576 114.752C211.109 114.752 211.589 114.619 212.016 114.352C212.453 114.085 212.795 113.717 213.04 113.248C213.296 112.779 213.424 112.256 213.424 111.68C213.424 111.093 213.296 110.576 213.04 110.128C212.795 109.669 212.453 109.307 212.016 109.04C211.589 108.763 211.109 108.624 210.576 108.624C210.032 108.624 209.541 108.763 209.104 109.04C208.677 109.307 208.336 109.669 208.08 110.128C207.824 110.576 207.696 111.093 207.696 111.68C207.696 112.256 207.824 112.779 208.08 113.248C208.336 113.717 208.677 114.085 209.104 114.352C209.541 114.619 210.032 114.752 210.576 114.752ZM219.845 116.192C219.226 116.192 218.666 116.048 218.165 115.76C217.674 115.472 217.29 115.072 217.013 114.56C216.746 114.037 216.613 113.44 216.613 112.768V107.376H218.101V112.608C218.101 113.035 218.186 113.408 218.357 113.728C218.538 114.048 218.783 114.299 219.093 114.48C219.413 114.661 219.775 114.752 220.181 114.752C220.586 114.752 220.943 114.661 221.253 114.48C221.573 114.299 221.818 114.037 221.989 113.696C222.17 113.355 222.261 112.949 222.261 112.48V107.376H223.765V116H222.309V114.32L222.549 114.464C222.346 115.008 221.999 115.435 221.509 115.744C221.029 116.043 220.474 116.192 219.845 116.192ZM232.02 116.096C231.177 116.096 230.526 115.856 230.068 115.376C229.62 114.896 229.396 114.219 229.396 113.344V108.8H227.828V107.376H228.148C228.532 107.376 228.836 107.259 229.06 107.024C229.284 106.789 229.396 106.48 229.396 106.096V105.392H230.884V107.376H232.82V108.8H230.884V113.296C230.884 113.584 230.926 113.835 231.012 114.048C231.108 114.261 231.262 114.432 231.476 114.56C231.689 114.677 231.972 114.736 232.324 114.736C232.398 114.736 232.489 114.731 232.596 114.72C232.713 114.709 232.82 114.699 232.916 114.688V116C232.777 116.032 232.622 116.053 232.452 116.064C232.281 116.085 232.137 116.096 232.02 116.096ZM238.561 116.192C237.729 116.192 236.977 116 236.305 115.616C235.633 115.221 235.1 114.683 234.705 114C234.31 113.317 234.113 112.544 234.113 111.68C234.113 110.816 234.305 110.048 234.689 109.376C235.084 108.704 235.617 108.171 236.289 107.776C236.961 107.381 237.718 107.184 238.561 107.184C239.393 107.184 240.145 107.381 240.817 107.776C241.489 108.16 242.017 108.688 242.401 109.36C242.796 110.032 242.993 110.805 242.993 111.68C242.993 112.555 242.79 113.333 242.385 114.016C241.98 114.688 241.441 115.221 240.769 115.616C240.108 116 239.372 116.192 238.561 116.192ZM238.561 114.752C239.094 114.752 239.574 114.619 240.001 114.352C240.438 114.085 240.78 113.717 241.025 113.248C241.281 112.779 241.409 112.256 241.409 111.68C241.409 111.093 241.281 110.576 241.025 110.128C240.78 109.669 240.438 109.307 240.001 109.04C239.574 108.763 239.094 108.624 238.561 108.624C238.017 108.624 237.526 108.763 237.089 109.04C236.662 109.307 236.321 109.669 236.065 110.128C235.809 110.576 235.681 111.093 235.681 111.68C235.681 112.256 235.809 112.779 236.065 113.248C236.321 113.717 236.662 114.085 237.089 114.352C237.526 114.619 238.017 114.752 238.561 114.752ZM248.694 116.192C247.883 116.192 247.152 115.995 246.502 115.6C245.862 115.205 245.355 114.667 244.982 113.984C244.608 113.301 244.422 112.539 244.422 111.696C244.422 110.832 244.608 110.064 244.982 109.392C245.355 108.709 245.862 108.171 246.502 107.776C247.152 107.381 247.883 107.184 248.694 107.184C249.408 107.184 250.043 107.339 250.598 107.648C251.152 107.947 251.59 108.352 251.91 108.864L251.67 109.232V103.888H253.174V116H251.718V114.16L251.91 114.416C251.611 114.981 251.174 115.419 250.598 115.728C250.032 116.037 249.398 116.192 248.694 116.192ZM248.822 114.752C249.366 114.752 249.851 114.619 250.278 114.352C250.704 114.085 251.04 113.723 251.286 113.264C251.542 112.795 251.67 112.272 251.67 111.696C251.67 111.109 251.542 110.587 251.286 110.128C251.04 109.659 250.704 109.291 250.278 109.024C249.851 108.757 249.366 108.624 248.822 108.624C248.288 108.624 247.803 108.763 247.366 109.04C246.939 109.307 246.603 109.669 246.358 110.128C246.112 110.576 245.99 111.099 245.99 111.696C245.99 112.272 246.112 112.795 246.358 113.264C246.603 113.723 246.939 114.085 247.366 114.352C247.792 114.619 248.278 114.752 248.822 114.752ZM257.845 116.192C257.28 116.192 256.778 116.091 256.341 115.888C255.914 115.675 255.578 115.387 255.333 115.024C255.088 114.651 254.965 114.224 254.965 113.744C254.965 113.285 255.061 112.875 255.253 112.512C255.456 112.139 255.765 111.824 256.181 111.568C256.608 111.312 257.141 111.131 257.781 111.024L260.981 110.496V111.744L258.117 112.224C257.562 112.32 257.157 112.496 256.901 112.752C256.656 113.008 256.533 113.323 256.533 113.696C256.533 114.048 256.672 114.341 256.949 114.576C257.237 114.811 257.594 114.928 258.021 114.928C258.565 114.928 259.034 114.816 259.429 114.592C259.834 114.357 260.149 114.043 260.373 113.648C260.608 113.253 260.725 112.816 260.725 112.336V110.144C260.725 109.675 260.549 109.296 260.197 109.008C259.856 108.709 259.402 108.56 258.837 108.56C258.346 108.56 257.909 108.688 257.525 108.944C257.152 109.189 256.874 109.52 256.693 109.936L255.397 109.264C255.557 108.869 255.813 108.517 256.165 108.208C256.517 107.888 256.928 107.637 257.397 107.456C257.866 107.275 258.357 107.184 258.869 107.184C259.53 107.184 260.112 107.312 260.613 107.568C261.114 107.813 261.504 108.16 261.781 108.608C262.069 109.045 262.213 109.557 262.213 110.144V116H260.757V114.368L261.029 114.464C260.848 114.805 260.602 115.104 260.293 115.36C259.984 115.616 259.621 115.819 259.205 115.968C258.789 116.117 258.336 116.192 257.845 116.192ZM264.824 119.52C264.632 119.52 264.44 119.504 264.248 119.472C264.056 119.451 263.875 119.403 263.704 119.328V118C263.821 118.011 263.965 118.032 264.136 118.064C264.317 118.096 264.493 118.112 264.664 118.112C265.165 118.112 265.544 118 265.8 117.776C266.067 117.552 266.317 117.173 266.552 116.64L267.096 115.344L267.064 116.64L263.384 107.376H265L267.864 114.736H267.384L270.232 107.376H271.88L267.992 117.024C267.811 117.483 267.576 117.904 267.288 118.288C267.011 118.672 266.669 118.971 266.264 119.184C265.859 119.408 265.379 119.52 264.824 119.52ZM273.011 116V114.08H274.563V116H273.011ZM282.183 116V105.52H278.951V104.08H286.951V105.52H283.767V116H282.183ZM290.969 116.192C290.137 116.192 289.396 115.995 288.745 115.6C288.095 115.205 287.583 114.667 287.209 113.984C286.836 113.291 286.649 112.517 286.649 111.664C286.649 110.8 286.831 110.032 287.193 109.36C287.567 108.688 288.068 108.16 288.697 107.776C289.337 107.381 290.052 107.184 290.841 107.184C291.481 107.184 292.047 107.301 292.537 107.536C293.039 107.76 293.46 108.069 293.801 108.464C294.153 108.848 294.42 109.291 294.601 109.792C294.793 110.283 294.889 110.795 294.889 111.328C294.889 111.445 294.879 111.579 294.857 111.728C294.847 111.867 294.831 112 294.809 112.128H287.737V110.848H293.945L293.241 111.424C293.337 110.869 293.284 110.373 293.081 109.936C292.879 109.499 292.58 109.152 292.185 108.896C291.791 108.64 291.343 108.512 290.841 108.512C290.34 108.512 289.881 108.64 289.465 108.896C289.049 109.152 288.724 109.52 288.489 110C288.265 110.469 288.175 111.029 288.217 111.68C288.175 112.309 288.271 112.864 288.505 113.344C288.751 113.813 289.092 114.181 289.529 114.448C289.977 114.704 290.463 114.832 290.985 114.832C291.561 114.832 292.047 114.699 292.441 114.432C292.836 114.165 293.156 113.824 293.401 113.408L294.649 114.048C294.479 114.443 294.212 114.805 293.849 115.136C293.497 115.456 293.076 115.712 292.585 115.904C292.105 116.096 291.567 116.192 290.969 116.192ZM296.669 116V103.888H298.157V116H296.669ZM300.306 116V103.888H301.794V116H300.306ZM306.549 116V107.376H308.005V109.136L307.797 108.864C308.01 108.32 308.351 107.904 308.821 107.616C309.29 107.328 309.818 107.184 310.405 107.184C311.077 107.184 311.679 107.371 312.213 107.744C312.757 108.117 313.13 108.608 313.333 109.216L312.917 109.232C313.141 108.56 313.519 108.053 314.053 107.712C314.586 107.36 315.178 107.184 315.829 107.184C316.426 107.184 316.965 107.323 317.445 107.6C317.935 107.877 318.325 108.261 318.613 108.752C318.901 109.243 319.045 109.797 319.045 110.416V116H317.541V110.896C317.541 110.416 317.455 110.011 317.285 109.68C317.114 109.349 316.879 109.093 316.581 108.912C316.293 108.72 315.951 108.624 315.557 108.624C315.173 108.624 314.826 108.72 314.517 108.912C314.218 109.093 313.978 109.355 313.797 109.696C313.626 110.027 313.541 110.427 313.541 110.896V116H312.037V110.896C312.037 110.416 311.951 110.011 311.781 109.68C311.61 109.349 311.375 109.093 311.077 108.912C310.789 108.72 310.447 108.624 310.053 108.624C309.669 108.624 309.322 108.72 309.013 108.912C308.714 109.093 308.474 109.355 308.293 109.696C308.122 110.027 308.037 110.427 308.037 110.896V116H306.549ZM324.966 116.192C324.134 116.192 323.393 115.995 322.742 115.6C322.091 115.205 321.579 114.667 321.206 113.984C320.833 113.291 320.646 112.517 320.646 111.664C320.646 110.8 320.827 110.032 321.19 109.36C321.563 108.688 322.065 108.16 322.694 107.776C323.334 107.381 324.049 107.184 324.838 107.184C325.478 107.184 326.043 107.301 326.534 107.536C327.035 107.76 327.457 108.069 327.798 108.464C328.15 108.848 328.417 109.291 328.598 109.792C328.79 110.283 328.886 110.795 328.886 111.328C328.886 111.445 328.875 111.579 328.854 111.728C328.843 111.867 328.827 112 328.806 112.128H321.734V110.848H327.942L327.238 111.424C327.334 110.869 327.281 110.373 327.078 109.936C326.875 109.499 326.577 109.152 326.182 108.896C325.787 108.64 325.339 108.512 324.838 108.512C324.337 108.512 323.878 108.64 323.462 108.896C323.046 109.152 322.721 109.52 322.486 110C322.262 110.469 322.171 111.029 322.214 111.68C322.171 112.309 322.267 112.864 322.502 113.344C322.747 113.813 323.089 114.181 323.526 114.448C323.974 114.704 324.459 114.832 324.982 114.832C325.558 114.832 326.043 114.699 326.438 114.432C326.833 114.165 327.153 113.824 327.398 113.408L328.646 114.048C328.475 114.443 328.209 114.805 327.846 115.136C327.494 115.456 327.073 115.712 326.582 115.904C326.102 116.096 325.563 116.192 324.966 116.192ZM330.922 118.224V117.504C331.253 117.419 331.504 117.253 331.674 117.008C331.845 116.763 331.941 116.427 331.962 116H331.242V114.08H332.794V115.44C332.794 116.208 332.634 116.827 332.314 117.296C332.005 117.765 331.541 118.075 330.922 118.224ZM36.313 138L32.969 126.08H34.617L37.417 136.576H37.033L39.945 126.08H41.593L44.489 136.576H44.089L46.905 126.08H48.553L45.209 138H43.465L40.553 127.552H40.969L38.057 138H36.313ZM49.7225 138V125.888H51.2105V131.056L50.9385 130.912C51.1518 130.368 51.4931 129.947 51.9625 129.648C52.4425 129.339 53.0025 129.184 53.6425 129.184C54.2611 129.184 54.8105 129.323 55.2905 129.6C55.7811 129.877 56.1651 130.261 56.4425 130.752C56.7305 131.243 56.8745 131.797 56.8745 132.416V138H55.3705V132.896C55.3705 132.416 55.2798 132.011 55.0985 131.68C54.9278 131.349 54.6878 131.093 54.3785 130.912C54.0691 130.72 53.7118 130.624 53.3065 130.624C52.9118 130.624 52.5545 130.72 52.2345 130.912C51.9145 131.093 51.6638 131.355 51.4825 131.696C51.3011 132.027 51.2105 132.427 51.2105 132.896V138H49.7225ZM61.3717 138.192C60.8064 138.192 60.3051 138.091 59.8677 137.888C59.4411 137.675 59.1051 137.387 58.8597 137.024C58.6144 136.651 58.4917 136.224 58.4917 135.744C58.4917 135.285 58.5877 134.875 58.7797 134.512C58.9824 134.139 59.2917 133.824 59.7077 133.568C60.1344 133.312 60.6677 133.131 61.3077 133.024L64.5077 132.496V133.744L61.6437 134.224C61.0891 134.32 60.6837 134.496 60.4277 134.752C60.1824 135.008 60.0597 135.323 60.0597 135.696C60.0597 136.048 60.1984 136.341 60.4757 136.576C60.7637 136.811 61.1211 136.928 61.5477 136.928C62.0917 136.928 62.5611 136.816 62.9557 136.592C63.3611 136.357 63.6757 136.043 63.8997 135.648C64.1344 135.253 64.2517 134.816 64.2517 134.336V132.144C64.2517 131.675 64.0757 131.296 63.7237 131.008C63.3824 130.709 62.9291 130.56 62.3637 130.56C61.8731 130.56 61.4357 130.688 61.0517 130.944C60.6784 131.189 60.4011 131.52 60.2197 131.936L58.9237 131.264C59.0837 130.869 59.3397 130.517 59.6917 130.208C60.0437 129.888 60.4544 129.637 60.9237 129.456C61.3931 129.275 61.8837 129.184 62.3957 129.184C63.0571 129.184 63.6384 129.312 64.1397 129.568C64.6411 129.813 65.0304 130.16 65.3077 130.608C65.5957 131.045 65.7397 131.557 65.7397 132.144V138H64.2837V136.368L64.5557 136.464C64.3744 136.805 64.1291 137.104 63.8197 137.36C63.5104 137.616 63.1477 137.819 62.7317 137.968C62.3157 138.117 61.8624 138.192 61.3717 138.192ZM71.2346 138.096C70.3919 138.096 69.7413 137.856 69.2826 137.376C68.8346 136.896 68.6106 136.219 68.6106 135.344V130.8H67.0426V129.376H67.3626C67.7466 129.376 68.0506 129.259 68.2746 129.024C68.4986 128.789 68.6106 128.48 68.6106 128.096V127.392H70.0986V129.376H72.0346V130.8H70.0986V135.296C70.0986 135.584 70.1413 135.835 70.2266 136.048C70.3226 136.261 70.4773 136.432 70.6906 136.56C70.9039 136.677 71.1866 136.736 71.5386 136.736C71.6133 136.736 71.7039 136.731 71.8106 136.72C71.9279 136.709 72.0346 136.699 72.1306 136.688V138C71.9919 138.032 71.8373 138.053 71.6666 138.064C71.4959 138.085 71.3519 138.096 71.2346 138.096ZM76.52 138V129.376H78.008V138H76.52ZM76.52 128V126.08H78.008V128H76.52ZM83.2448 138.192C82.3808 138.192 81.6288 137.979 80.9888 137.552C80.3488 137.125 79.8955 136.549 79.6288 135.824L80.8128 135.248C81.0582 135.76 81.3942 136.165 81.8208 136.464C82.2475 136.763 82.7222 136.912 83.2448 136.912C83.7142 136.912 84.1035 136.8 84.4128 136.576C84.7222 136.352 84.8768 136.059 84.8768 135.696C84.8768 135.44 84.8022 135.237 84.6528 135.088C84.5142 134.928 84.3435 134.805 84.1408 134.72C83.9382 134.624 83.7515 134.555 83.5808 134.512L82.2848 134.144C81.5062 133.92 80.9355 133.6 80.5728 133.184C80.2208 132.768 80.0448 132.283 80.0448 131.728C80.0448 131.216 80.1728 130.773 80.4288 130.4C80.6955 130.016 81.0528 129.717 81.5008 129.504C81.9595 129.291 82.4715 129.184 83.0368 129.184C83.7942 129.184 84.4715 129.376 85.0688 129.76C85.6768 130.144 86.1088 130.683 86.3648 131.376L85.1488 131.936C84.9568 131.488 84.6688 131.136 84.2848 130.88C83.9008 130.613 83.4688 130.48 82.9888 130.48C82.5515 130.48 82.2048 130.592 81.9488 130.816C81.6928 131.029 81.5648 131.301 81.5648 131.632C81.5648 131.877 81.6288 132.08 81.7568 132.24C81.8848 132.389 82.0395 132.507 82.2208 132.592C82.4022 132.667 82.5782 132.731 82.7488 132.784L84.1568 133.2C84.8608 133.403 85.4048 133.717 85.7888 134.144C86.1835 134.571 86.3808 135.083 86.3808 135.68C86.3808 136.16 86.2475 136.592 85.9808 136.976C85.7142 137.36 85.3462 137.659 84.8768 137.872C84.4075 138.085 83.8635 138.192 83.2448 138.192ZM91.2383 141.52C91.0463 141.52 90.8543 141.504 90.6623 141.472C90.4703 141.451 90.289 141.403 90.1183 141.328V140C90.2357 140.011 90.3797 140.032 90.5503 140.064C90.7317 140.096 90.9077 140.112 91.0783 140.112C91.5797 140.112 91.9583 140 92.2143 139.776C92.481 139.552 92.7317 139.173 92.9663 138.64L93.5103 137.344L93.4783 138.64L89.7983 129.376H91.4143L94.2783 136.736H93.7983L96.6463 129.376H98.2943L94.4063 139.024C94.225 139.483 93.9903 139.904 93.7023 140.288C93.425 140.672 93.0837 140.971 92.6783 141.184C92.273 141.408 91.793 141.52 91.2383 141.52ZM103.398 138.192C102.566 138.192 101.814 138 101.142 137.616C100.47 137.221 99.9365 136.683 99.5418 136C99.1472 135.317 98.9498 134.544 98.9498 133.68C98.9498 132.816 99.1418 132.048 99.5258 131.376C99.9205 130.704 100.454 130.171 101.126 129.776C101.798 129.381 102.555 129.184 103.398 129.184C104.23 129.184 104.982 129.381 105.654 129.776C106.326 130.16 106.854 130.688 107.238 131.36C107.633 132.032 107.83 132.805 107.83 133.68C107.83 134.555 107.627 135.333 107.222 136.016C106.817 136.688 106.278 137.221 105.606 137.616C104.945 138 104.209 138.192 103.398 138.192ZM103.398 136.752C103.931 136.752 104.411 136.619 104.838 136.352C105.275 136.085 105.617 135.717 105.862 135.248C106.118 134.779 106.246 134.256 106.246 133.68C106.246 133.093 106.118 132.576 105.862 132.128C105.617 131.669 105.275 131.307 104.838 131.04C104.411 130.763 103.931 130.624 103.398 130.624C102.854 130.624 102.363 130.763 101.926 131.04C101.499 131.307 101.158 131.669 100.902 132.128C100.646 132.576 100.518 133.093 100.518 133.68C100.518 134.256 100.646 134.779 100.902 135.248C101.158 135.717 101.499 136.085 101.926 136.352C102.363 136.619 102.854 136.752 103.398 136.752ZM112.667 138.192C112.048 138.192 111.488 138.048 110.987 137.76C110.496 137.472 110.112 137.072 109.835 136.56C109.568 136.037 109.435 135.44 109.435 134.768V129.376H110.923V134.608C110.923 135.035 111.008 135.408 111.179 135.728C111.36 136.048 111.605 136.299 111.915 136.48C112.235 136.661 112.597 136.752 113.003 136.752C113.408 136.752 113.765 136.661 114.075 136.48C114.395 136.299 114.64 136.037 114.811 135.696C114.992 135.355 115.083 134.949 115.083 134.48V129.376H116.587V138H115.131V136.32L115.371 136.464C115.168 137.008 114.821 137.435 114.331 137.744C113.851 138.043 113.296 138.192 112.667 138.192ZM121.337 138V129.376H122.793V131.056L122.553 130.912C122.767 130.368 123.108 129.947 123.577 129.648C124.057 129.339 124.617 129.184 125.257 129.184C125.876 129.184 126.425 129.323 126.905 129.6C127.396 129.877 127.78 130.261 128.057 130.752C128.345 131.243 128.489 131.797 128.489 132.416V138H126.985V132.896C126.985 132.416 126.9 132.011 126.729 131.68C126.559 131.349 126.313 131.093 125.993 130.912C125.684 130.72 125.327 130.624 124.921 130.624C124.516 130.624 124.153 130.72 123.833 130.912C123.524 131.093 123.279 131.355 123.097 131.696C122.916 132.027 122.825 132.427 122.825 132.896V138H121.337ZM132.987 138.192C132.421 138.192 131.92 138.091 131.483 137.888C131.056 137.675 130.72 137.387 130.475 137.024C130.229 136.651 130.107 136.224 130.107 135.744C130.107 135.285 130.203 134.875 130.395 134.512C130.597 134.139 130.907 133.824 131.323 133.568C131.749 133.312 132.283 133.131 132.923 133.024L136.123 132.496V133.744L133.259 134.224C132.704 134.32 132.299 134.496 132.043 134.752C131.797 135.008 131.675 135.323 131.675 135.696C131.675 136.048 131.813 136.341 132.091 136.576C132.379 136.811 132.736 136.928 133.163 136.928C133.707 136.928 134.176 136.816 134.571 136.592C134.976 136.357 135.291 136.043 135.515 135.648C135.749 135.253 135.867 134.816 135.867 134.336V132.144C135.867 131.675 135.691 131.296 135.339 131.008C134.997 130.709 134.544 130.56 133.979 130.56C133.488 130.56 133.051 130.688 132.667 130.944C132.293 131.189 132.016 131.52 131.835 131.936L130.539 131.264C130.699 130.869 130.955 130.517 131.307 130.208C131.659 129.888 132.069 129.637 132.539 129.456C133.008 129.275 133.499 129.184 134.011 129.184C134.672 129.184 135.253 129.312 135.755 129.568C136.256 129.813 136.645 130.16 136.923 130.608C137.211 131.045 137.355 131.557 137.355 132.144V138H135.899V136.368L136.171 136.464C135.989 136.805 135.744 137.104 135.435 137.36C135.125 137.616 134.763 137.819 134.347 137.968C133.931 138.117 133.477 138.192 132.987 138.192ZM139.502 138V129.376H140.958V131.136L140.75 130.864C140.963 130.32 141.305 129.904 141.774 129.616C142.243 129.328 142.771 129.184 143.358 129.184C144.03 129.184 144.633 129.371 145.166 129.744C145.71 130.117 146.083 130.608 146.286 131.216L145.87 131.232C146.094 130.56 146.473 130.053 147.006 129.712C147.539 129.36 148.131 129.184 148.782 129.184C149.379 129.184 149.918 129.323 150.398 129.6C150.889 129.877 151.278 130.261 151.566 130.752C151.854 131.243 151.998 131.797 151.998 132.416V138H150.494V132.896C150.494 132.416 150.409 132.011 150.238 131.68C150.067 131.349 149.833 131.093 149.534 130.912C149.246 130.72 148.905 130.624 148.51 130.624C148.126 130.624 147.779 130.72 147.47 130.912C147.171 131.093 146.931 131.355 146.75 131.696C146.579 132.027 146.494 132.427 146.494 132.896V138H144.99V132.896C144.99 132.416 144.905 132.011 144.734 131.68C144.563 131.349 144.329 131.093 144.03 130.912C143.742 130.72 143.401 130.624 143.006 130.624C142.622 130.624 142.275 130.72 141.966 130.912C141.667 131.093 141.427 131.355 141.246 131.696C141.075 132.027 140.99 132.427 140.99 132.896V138H139.502ZM157.919 138.192C157.087 138.192 156.346 137.995 155.695 137.6C155.045 137.205 154.533 136.667 154.159 135.984C153.786 135.291 153.599 134.517 153.599 133.664C153.599 132.8 153.781 132.032 154.143 131.36C154.517 130.688 155.018 130.16 155.647 129.776C156.287 129.381 157.002 129.184 157.791 129.184C158.431 129.184 158.997 129.301 159.487 129.536C159.989 129.76 160.41 130.069 160.751 130.464C161.103 130.848 161.37 131.291 161.551 131.792C161.743 132.283 161.839 132.795 161.839 133.328C161.839 133.445 161.829 133.579 161.807 133.728C161.797 133.867 161.781 134 161.759 134.128H154.687V132.848H160.895L160.191 133.424C160.287 132.869 160.234 132.373 160.031 131.936C159.829 131.499 159.53 131.152 159.135 130.896C158.741 130.64 158.293 130.512 157.791 130.512C157.29 130.512 156.831 130.64 156.415 130.896C155.999 131.152 155.674 131.52 155.439 132C155.215 132.469 155.125 133.029 155.167 133.68C155.125 134.309 155.221 134.864 155.455 135.344C155.701 135.813 156.042 136.181 156.479 136.448C156.927 136.704 157.413 136.832 157.935 136.832C158.511 136.832 158.997 136.699 159.391 136.432C159.786 136.165 160.106 135.824 160.351 135.408L161.599 136.048C161.429 136.443 161.162 136.805 160.799 137.136C160.447 137.456 160.026 137.712 159.535 137.904C159.055 138.096 158.517 138.192 157.919 138.192ZM164.227 138V136.08H165.779V138H164.227Z" fill="white"/>
<defs>
<linearGradient id="paint0_linear_208_3996" x1="286.793" y1="176.5" x2="387.293" y2="264" gradientUnits="userSpaceOnUse">
<stop stop-color="#F19B27"/>
<stop offset="0.3412" stop-color="#F3E5A5"/>
<stop offset="0.589801" stop-color="#F3E5A5"/>
<stop offset="1" stop-color="#F19B27"/>
</linearGradient>
<linearGradient id="paint1_linear_208_3996" x1="376.42" y1="235.125" x2="376.42" y2="235.805" gradientUnits="userSpaceOnUse">
<stop stop-color="#F19B27"/>
<stop offset="0.3412" stop-color="#F3E5A5"/>
<stop offset="0.589801" stop-color="#F3E5A5"/>
<stop offset="1" stop-color="#F19B27"/>
</linearGradient>
<linearGradient id="paint2_linear_208_3996" x1="376.42" y1="237.344" x2="376.42" y2="237.72" gradientUnits="userSpaceOnUse">
<stop stop-color="#F19B27"/>
<stop offset="0.3412" stop-color="#F3E5A5"/>
<stop offset="0.589801" stop-color="#F3E5A5"/>
<stop offset="1" stop-color="#F19B27"/>
</linearGradient>
</defs>
</svg>
