<svg width="155" height="195" viewBox="0 0 155 195" fill="none" xmlns="http://www.w3.org/2000/svg">
<mask id="path-1-inside-1_208_4112" fill="white">
<path fill-rule="evenodd" clip-rule="evenodd" d="M80.7467 1.66329C79.1504 -0.554431 75.8499 -0.554427 74.2537 1.66329L1.08773 103.316C-0.816754 105.962 1.07412 109.653 4.33424 109.653H32.5002L32.5002 194.153H123.5L123.5 109.653H150.666C153.926 109.653 155.817 105.962 153.913 103.316L80.7467 1.66329Z"/>
</mask>
<path fill-rule="evenodd" clip-rule="evenodd" d="M80.7467 1.66329C79.1504 -0.554431 75.8499 -0.554427 74.2537 1.66329L1.08773 103.316C-0.816754 105.962 1.07412 109.653 4.33424 109.653H32.5002L32.5002 194.153H123.5L123.5 109.653H150.666C153.926 109.653 155.817 105.962 153.913 103.316L80.7467 1.66329Z" fill="url(#paint0_linear_208_4112)"/>
<path d="M74.2537 1.66329L75.0653 2.24747L75.0653 2.24747L74.2537 1.66329ZM80.7467 1.66329L79.9351 2.24746V2.24746L80.7467 1.66329ZM1.08773 103.316L0.276107 102.732H0.276107L1.08773 103.316ZM32.5002 109.653H33.5002V108.653H32.5002V109.653ZM32.5002 194.153H31.5002V195.153H32.5002V194.153ZM123.5 194.153V195.153H124.5V194.153H123.5ZM123.5 109.653V108.653H122.5V109.653H123.5ZM153.913 103.316L153.101 103.9L153.913 103.316ZM75.0653 2.24747C76.2625 0.584179 78.7379 0.584178 79.9351 2.24746L81.5583 1.07911C79.563 -1.69304 75.4373 -1.69303 73.442 1.07911L75.0653 2.24747ZM1.89936 103.9L75.0653 2.24747L73.442 1.07911L0.276107 102.732L1.89936 103.9ZM4.33424 108.653C1.88915 108.653 0.470992 105.885 1.89936 103.9L0.276107 102.732C-2.1045 106.039 0.259096 110.653 4.33424 110.653V108.653ZM32.5002 108.653H4.33424V110.653H32.5002V108.653ZM33.5002 194.153L33.5002 109.653H31.5002L31.5002 194.153H33.5002ZM123.5 193.153H32.5002V195.153H123.5V193.153ZM122.5 109.653L122.5 194.153H124.5L124.5 109.653H122.5ZM150.666 108.653H123.5V110.653H150.666V108.653ZM153.101 103.9C154.529 105.885 153.111 108.653 150.666 108.653V110.653C154.741 110.653 157.105 106.039 154.724 102.732L153.101 103.9ZM79.9351 2.24746L153.101 103.9L154.724 102.732L81.5583 1.07911L79.9351 2.24746Z" fill="url(#paint1_linear_208_4112)" mask="url(#path-1-inside-1_208_4112)"/>
<defs>
<linearGradient id="paint0_linear_208_4112" x1="77.5002" y1="0" x2="77.5002" y2="194.153" gradientUnits="userSpaceOnUse">
<stop stop-color="#FCB746"/>
<stop offset="1" stop-color="#08090B"/>
</linearGradient>
<linearGradient id="paint1_linear_208_4112" x1="77.5002" y1="0" x2="82" y2="108.653" gradientUnits="userSpaceOnUse">
<stop stop-color="white"/>
<stop offset="1" stop-color="white" stop-opacity="0"/>
</linearGradient>
</defs>
</svg>
