<svg width="388" height="209" viewBox="0 0 388 209" fill="none" xmlns="http://www.w3.org/2000/svg">
<rect x="0.5" y="0.5" width="387" height="208" rx="14.5" fill="#18181B" stroke="#3F3F46"/>
<rect opacity="0.1" x="372" y="72" width="10" height="356" rx="5" transform="rotate(90 372 72)" fill="white"/>
<rect x="120" y="72" width="10" height="104" rx="5" transform="rotate(90 120 72)" fill="url(#paint0_linear_208_4087)"/>
<path d="M17.232 62V51.57H20.816C21.4973 51.57 22.0947 51.7053 22.608 51.976C23.1213 52.2373 23.518 52.6107 23.798 53.096C24.0873 53.572 24.232 54.1273 24.232 54.762C24.232 55.3967 24.0873 55.952 23.798 56.428C23.518 56.904 23.1213 57.2773 22.608 57.548C22.104 57.8093 21.5067 57.94 20.816 57.94H18.352V62H17.232ZM18.352 56.89H20.872C21.32 56.89 21.712 56.806 22.048 56.638C22.384 56.4607 22.6453 56.2133 22.832 55.896C23.0187 55.5693 23.112 55.1867 23.112 54.748C23.112 54.3093 23.0187 53.9313 22.832 53.614C22.6453 53.2967 22.384 53.054 22.048 52.886C21.712 52.7087 21.32 52.62 20.872 52.62H18.352V56.89ZM26.0741 62V54.496H27.1241V55.728L26.9841 55.546C27.1614 55.1913 27.4274 54.9113 27.7821 54.706C28.1461 54.5007 28.5848 54.398 29.0981 54.398H29.5741V55.448H28.9161C28.3748 55.448 27.9408 55.616 27.6141 55.952C27.2874 56.288 27.1241 56.764 27.1241 57.38V62H26.0741ZM34.3186 62.168C33.6092 62.168 32.9652 62 32.3866 61.664C31.8079 61.3187 31.3459 60.852 31.0006 60.264C30.6646 59.6667 30.4966 58.99 30.4966 58.234C30.4966 57.4873 30.6646 56.82 31.0006 56.232C31.3366 55.644 31.7892 55.182 32.3586 54.846C32.9372 54.5007 33.5906 54.328 34.3186 54.328C35.0466 54.328 35.6952 54.496 36.2646 54.832C36.8432 55.168 37.2959 55.63 37.6226 56.218C37.9586 56.806 38.1266 57.478 38.1266 58.234C38.1266 58.9993 37.9539 59.6807 37.6086 60.278C37.2632 60.866 36.8012 61.328 36.2226 61.664C35.6532 62 35.0186 62.168 34.3186 62.168ZM34.3186 61.118C34.8226 61.118 35.2752 60.992 35.6766 60.74C36.0872 60.488 36.4092 60.1427 36.6426 59.704C36.8852 59.2653 37.0066 58.7753 37.0066 58.234C37.0066 57.6927 36.8852 57.2073 36.6426 56.778C36.4092 56.3487 36.0872 56.008 35.6766 55.756C35.2752 55.504 34.8226 55.378 34.3186 55.378C33.8146 55.378 33.3572 55.504 32.9466 55.756C32.5452 56.008 32.2232 56.3487 31.9806 56.778C31.7379 57.2073 31.6166 57.6927 31.6166 58.234C31.6166 58.7753 31.7379 59.2653 31.9806 59.704C32.2232 60.1427 32.5452 60.488 32.9466 60.74C33.3572 60.992 33.8146 61.118 34.3186 61.118ZM43.7724 62.168C43.1284 62.168 42.5451 62.0233 42.0224 61.734C41.5091 61.4353 41.1217 61.0153 40.8604 60.474L41.0284 60.32V62H39.9784V51.402H41.0284V56.176L40.8604 55.882C41.1591 55.406 41.5557 55.028 42.0504 54.748C42.5544 54.468 43.1284 54.328 43.7724 54.328C44.4817 54.328 45.1117 54.5007 45.6624 54.846C46.2224 55.182 46.6611 55.644 46.9784 56.232C47.3051 56.82 47.4684 57.492 47.4684 58.248C47.4684 58.9947 47.3051 59.6667 46.9784 60.264C46.6611 60.852 46.2224 61.3187 45.6624 61.664C45.1117 62 44.4817 62.168 43.7724 62.168ZM43.7164 61.118C44.2204 61.118 44.6684 60.992 45.0604 60.74C45.4617 60.488 45.7744 60.1473 45.9984 59.718C46.2317 59.2793 46.3484 58.7893 46.3484 58.248C46.3484 57.6973 46.2317 57.2073 45.9984 56.778C45.7744 56.3487 45.4617 56.008 45.0604 55.756C44.6684 55.504 44.2204 55.378 43.7164 55.378C43.2124 55.378 42.7551 55.504 42.3444 55.756C41.9431 56.008 41.6211 56.3533 41.3784 56.792C41.1451 57.2213 41.0284 57.7067 41.0284 58.248C41.0284 58.7893 41.1451 59.2793 41.3784 59.718C41.6211 60.1473 41.9431 60.488 42.3444 60.74C42.7551 60.992 43.2124 61.118 43.7164 61.118ZM49.3163 62V51.402H50.3663V62H49.3163ZM55.9315 62.168C55.2315 62.168 54.5968 62 54.0275 61.664C53.4675 61.3187 53.0242 60.8473 52.6975 60.25C52.3708 59.6527 52.2075 58.976 52.2075 58.22C52.2075 57.464 52.3662 56.7967 52.6835 56.218C53.0008 55.63 53.4302 55.168 53.9715 54.832C54.5222 54.496 55.1382 54.328 55.8195 54.328C56.3608 54.328 56.8415 54.4307 57.2615 54.636C57.6908 54.832 58.0548 55.1027 58.3535 55.448C58.6522 55.784 58.8808 56.1667 59.0395 56.596C59.1982 57.016 59.2775 57.45 59.2775 57.898C59.2775 57.9913 59.2728 58.0987 59.2635 58.22C59.2542 58.332 59.2402 58.4487 59.2215 58.57H52.8795V57.59H58.6195L58.1155 58.01C58.1995 57.4967 58.1388 57.0393 57.9335 56.638C57.7375 56.2273 57.4528 55.9053 57.0795 55.672C56.7062 55.4293 56.2862 55.308 55.8195 55.308C55.3528 55.308 54.9188 55.4293 54.5175 55.672C54.1255 55.9147 53.8175 56.2553 53.5935 56.694C53.3695 57.1233 53.2808 57.6367 53.3275 58.234C53.2808 58.8313 53.3742 59.354 53.6075 59.802C53.8502 60.2407 54.1768 60.5813 54.5875 60.824C55.0075 61.0667 55.4555 61.188 55.9315 61.188C56.4822 61.188 56.9442 61.0573 57.3175 60.796C57.6908 60.5347 57.9942 60.208 58.2275 59.816L59.1235 60.292C58.9742 60.628 58.7455 60.9407 58.4375 61.23C58.1295 61.51 57.7608 61.7387 57.3315 61.916C56.9115 62.084 56.4448 62.168 55.9315 62.168ZM61.1288 62V54.496H62.1788V55.924L62.0108 55.714C62.2161 55.2753 62.5194 54.9347 62.9208 54.692C63.3314 54.4493 63.7794 54.328 64.2648 54.328C64.8434 54.328 65.3661 54.4913 65.8328 54.818C66.2994 55.1447 66.6308 55.5693 66.8268 56.092L66.5328 56.106C66.7194 55.5273 67.0414 55.0887 67.4988 54.79C67.9654 54.482 68.4788 54.328 69.0388 54.328C69.5428 54.328 70.0048 54.4493 70.4248 54.692C70.8541 54.9347 71.1948 55.2707 71.4468 55.7C71.7081 56.12 71.8388 56.596 71.8388 57.128V62H70.7888V57.534C70.7888 57.0767 70.7048 56.6893 70.5368 56.372C70.3781 56.0547 70.1588 55.812 69.8788 55.644C69.5988 55.4667 69.2768 55.378 68.9128 55.378C68.5581 55.378 68.2361 55.4667 67.9468 55.644C67.6574 55.812 67.4288 56.0593 67.2608 56.386C67.0928 56.7033 67.0088 57.086 67.0088 57.534V62H65.9588V57.534C65.9588 57.0767 65.8748 56.6893 65.7068 56.372C65.5481 56.0547 65.3288 55.812 65.0488 55.644C64.7688 55.4667 64.4468 55.378 64.0828 55.378C63.7188 55.378 63.3921 55.4667 63.1028 55.644C62.8228 55.812 62.5988 56.0593 62.4308 56.386C62.2628 56.7033 62.1788 57.086 62.1788 57.534V62H61.1288ZM73.8016 58.738V57.758H78.7016V58.738H73.8016ZM84.4843 62.168C83.8216 62.168 83.2196 62.042 82.6783 61.79C82.1369 61.538 81.6796 61.202 81.3063 60.782C80.9329 60.3527 80.6669 59.8813 80.5083 59.368L81.5163 58.99C81.7589 59.6993 82.1369 60.2407 82.6503 60.614C83.1636 60.978 83.7749 61.16 84.4843 61.16C84.9323 61.16 85.3243 61.09 85.6603 60.95C86.0056 60.8007 86.2716 60.5953 86.4583 60.334C86.6449 60.0727 86.7383 59.7693 86.7383 59.424C86.7383 58.9107 86.5983 58.514 86.3183 58.234C86.0383 57.954 85.6369 57.7393 85.1143 57.59L83.2383 57.03C82.5009 56.8153 81.9316 56.456 81.5303 55.952C81.1383 55.448 80.9423 54.874 80.9423 54.23C80.9423 53.6793 81.0776 53.194 81.3483 52.774C81.6189 52.3447 81.9876 52.0087 82.4543 51.766C82.9303 51.5233 83.4669 51.402 84.0643 51.402C84.6896 51.402 85.2496 51.5187 85.7443 51.752C86.2483 51.976 86.6729 52.2747 87.0183 52.648C87.3636 53.0213 87.6109 53.4367 87.7603 53.894L86.7803 54.286C86.5563 53.67 86.2063 53.2033 85.7303 52.886C85.2636 52.5687 84.7129 52.41 84.0783 52.41C83.6769 52.41 83.3223 52.48 83.0143 52.62C82.7156 52.76 82.4823 52.9607 82.3143 53.222C82.1463 53.4833 82.0623 53.7913 82.0623 54.146C82.0623 54.5753 82.1976 54.9627 82.4683 55.308C82.7389 55.644 83.1543 55.896 83.7143 56.064L85.3663 56.554C86.1876 56.7967 86.8083 57.1467 87.2283 57.604C87.6483 58.0613 87.8583 58.6353 87.8583 59.326C87.8583 59.886 87.7136 60.3807 87.4243 60.81C87.1443 61.23 86.7476 61.5613 86.2343 61.804C85.7303 62.0467 85.1469 62.168 84.4843 62.168ZM93.3811 62.168C92.6717 62.168 92.0277 62 91.4491 61.664C90.8704 61.3187 90.4084 60.852 90.0631 60.264C89.7271 59.6667 89.5591 58.99 89.5591 58.234C89.5591 57.4873 89.7271 56.82 90.0631 56.232C90.3991 55.644 90.8517 55.182 91.4211 54.846C91.9997 54.5007 92.6531 54.328 93.3811 54.328C94.1091 54.328 94.7577 54.496 95.3271 54.832C95.9057 55.168 96.3584 55.63 96.6851 56.218C97.0211 56.806 97.1891 57.478 97.1891 58.234C97.1891 58.9993 97.0164 59.6807 96.6711 60.278C96.3257 60.866 95.8637 61.328 95.2851 61.664C94.7157 62 94.0811 62.168 93.3811 62.168ZM93.3811 61.118C93.8851 61.118 94.3377 60.992 94.7391 60.74C95.1497 60.488 95.4717 60.1427 95.7051 59.704C95.9477 59.2653 96.0691 58.7753 96.0691 58.234C96.0691 57.6927 95.9477 57.2073 95.7051 56.778C95.4717 56.3487 95.1497 56.008 94.7391 55.756C94.3377 55.504 93.8851 55.378 93.3811 55.378C92.8771 55.378 92.4197 55.504 92.0091 55.756C91.6077 56.008 91.2857 56.3487 91.0431 56.778C90.8004 57.2073 90.6791 57.6927 90.6791 58.234C90.6791 58.7753 90.8004 59.2653 91.0431 59.704C91.2857 60.1427 91.6077 60.488 92.0091 60.74C92.4197 60.992 92.8771 61.118 93.3811 61.118ZM99.0409 62V51.402H100.091V62H99.0409ZM104.242 62L101.316 54.496H102.492L104.956 61.076H104.578L107.056 54.496H108.246L105.292 62H104.242ZM112.752 62.168C112.052 62.168 111.417 62 110.848 61.664C110.288 61.3187 109.844 60.8473 109.518 60.25C109.191 59.6527 109.028 58.976 109.028 58.22C109.028 57.464 109.186 56.7967 109.504 56.218C109.821 55.63 110.25 55.168 110.792 54.832C111.342 54.496 111.958 54.328 112.64 54.328C113.181 54.328 113.662 54.4307 114.082 54.636C114.511 54.832 114.875 55.1027 115.174 55.448C115.472 55.784 115.701 56.1667 115.86 56.596C116.018 57.016 116.098 57.45 116.098 57.898C116.098 57.9913 116.093 58.0987 116.084 58.22C116.074 58.332 116.06 58.4487 116.042 58.57H109.7V57.59H115.44L114.936 58.01C115.02 57.4967 114.959 57.0393 114.754 56.638C114.558 56.2273 114.273 55.9053 113.9 55.672C113.526 55.4293 113.106 55.308 112.64 55.308C112.173 55.308 111.739 55.4293 111.338 55.672C110.946 55.9147 110.638 56.2553 110.414 56.694C110.19 57.1233 110.101 57.6367 110.148 58.234C110.101 58.8313 110.194 59.354 110.428 59.802C110.67 60.2407 110.997 60.5813 111.408 60.824C111.828 61.0667 112.276 61.188 112.752 61.188C113.302 61.188 113.764 61.0573 114.138 60.796C114.511 60.5347 114.814 60.208 115.048 59.816L115.944 60.292C115.794 60.628 115.566 60.9407 115.258 61.23C114.95 61.51 114.581 61.7387 114.152 61.916C113.732 62.084 113.265 62.168 112.752 62.168ZM121.337 62.168C120.637 62.168 120.007 62 119.447 61.664C118.887 61.3187 118.444 60.852 118.117 60.264C117.8 59.6667 117.641 58.9947 117.641 58.248C117.641 57.492 117.8 56.82 118.117 56.232C118.444 55.644 118.882 55.182 119.433 54.846C119.993 54.5007 120.628 54.328 121.337 54.328C121.981 54.328 122.555 54.468 123.059 54.748C123.563 55.028 123.96 55.406 124.249 55.882L124.081 56.176V51.402H125.131V62H124.081V60.32L124.249 60.474C123.988 61.0153 123.596 61.4353 123.073 61.734C122.56 62.0233 121.981 62.168 121.337 62.168ZM121.393 61.118C121.897 61.118 122.35 60.992 122.751 60.74C123.162 60.488 123.484 60.1473 123.717 59.718C123.96 59.2793 124.081 58.7893 124.081 58.248C124.081 57.7067 123.96 57.2213 123.717 56.792C123.484 56.3533 123.162 56.008 122.751 55.756C122.35 55.504 121.897 55.378 121.393 55.378C120.898 55.378 120.45 55.504 120.049 55.756C119.648 56.008 119.33 56.3487 119.097 56.778C118.873 57.2073 118.761 57.6973 118.761 58.248C118.761 58.7893 118.873 59.2793 119.097 59.718C119.33 60.1473 119.643 60.488 120.035 60.74C120.436 60.992 120.889 61.118 121.393 61.118Z" fill="#F4F4F5"/>
<path d="M346.107 61L349.215 56.932L349.395 56.824C349.275 57.016 349.135 57.168 348.975 57.28C348.815 57.392 348.639 57.472 348.447 57.52C348.255 57.568 348.043 57.592 347.811 57.592C347.291 57.592 346.823 57.472 346.407 57.232C345.991 56.984 345.659 56.648 345.411 56.224C345.171 55.792 345.051 55.3 345.051 54.748C345.051 54.204 345.175 53.72 345.423 53.296C345.679 52.872 346.023 52.536 346.455 52.288C346.895 52.04 347.387 51.916 347.931 51.916C348.491 51.916 348.987 52.044 349.419 52.3C349.851 52.548 350.191 52.896 350.439 53.344C350.687 53.784 350.811 54.292 350.811 54.868C350.811 55.188 350.771 55.504 350.691 55.816C350.619 56.128 350.507 56.436 350.355 56.74C350.203 57.044 350.011 57.348 349.779 57.652L347.259 61H346.107ZM347.931 56.728C348.307 56.728 348.639 56.644 348.927 56.476C349.215 56.3 349.439 56.064 349.599 55.768C349.767 55.464 349.851 55.124 349.851 54.748C349.851 54.364 349.767 54.024 349.599 53.728C349.431 53.424 349.203 53.188 348.915 53.02C348.627 52.844 348.299 52.756 347.931 52.756C347.563 52.756 347.235 52.844 346.947 53.02C346.659 53.188 346.431 53.424 346.263 53.728C346.095 54.024 346.011 54.364 346.011 54.748C346.011 55.124 346.091 55.464 346.251 55.768C346.419 56.064 346.647 56.3 346.935 56.476C347.231 56.644 347.563 56.728 347.931 56.728ZM355.931 61.144C355.227 61.144 354.607 60.952 354.071 60.568C353.543 60.176 353.131 59.636 352.835 58.948C352.539 58.252 352.391 57.444 352.391 56.524C352.391 55.604 352.539 54.8 352.835 54.112C353.131 53.416 353.543 52.876 354.071 52.492C354.599 52.108 355.215 51.916 355.919 51.916C356.623 51.916 357.239 52.108 357.767 52.492C358.295 52.876 358.707 53.416 359.003 54.112C359.299 54.8 359.447 55.604 359.447 56.524C359.447 57.444 359.299 58.252 359.003 58.948C358.715 59.644 358.307 60.184 357.779 60.568C357.251 60.952 356.635 61.144 355.931 61.144ZM355.931 60.244C356.443 60.244 356.891 60.088 357.275 59.776C357.659 59.464 357.959 59.032 358.175 58.48C358.391 57.92 358.499 57.268 358.499 56.524C358.499 55.78 358.391 55.132 358.175 54.58C357.959 54.02 357.659 53.588 357.275 53.284C356.891 52.972 356.439 52.816 355.919 52.816C355.407 52.816 354.959 52.972 354.575 53.284C354.191 53.588 353.891 54.02 353.675 54.58C353.459 55.132 353.351 55.78 353.351 56.524C353.351 57.26 353.459 57.908 353.675 58.468C353.891 59.028 354.191 59.464 354.575 59.776C354.967 60.088 355.419 60.244 355.931 60.244ZM361.972 61L369.292 52.06H370.456L363.136 61H361.972ZM363.28 56.596C362.848 56.596 362.456 56.492 362.104 56.284C361.752 56.068 361.468 55.784 361.252 55.432C361.044 55.08 360.94 54.688 360.94 54.256C360.94 53.824 361.044 53.432 361.252 53.08C361.468 52.72 361.752 52.436 362.104 52.228C362.456 52.02 362.848 51.916 363.28 51.916C363.712 51.916 364.104 52.02 364.456 52.228C364.808 52.436 365.088 52.72 365.296 53.08C365.504 53.432 365.608 53.824 365.608 54.256C365.608 54.688 365.504 55.08 365.296 55.432C365.088 55.784 364.808 56.068 364.456 56.284C364.104 56.492 363.712 56.596 363.28 56.596ZM363.28 55.732C363.56 55.732 363.804 55.664 364.012 55.528C364.228 55.384 364.396 55.2 364.516 54.976C364.644 54.744 364.708 54.504 364.708 54.256C364.708 54 364.644 53.76 364.516 53.536C364.396 53.312 364.228 53.132 364.012 52.996C363.804 52.852 363.56 52.78 363.28 52.78C363.008 52.78 362.76 52.852 362.536 52.996C362.32 53.132 362.148 53.312 362.02 53.536C361.9 53.76 361.84 54 361.84 54.256C361.84 54.504 361.9 54.744 362.02 54.976C362.148 55.2 362.32 55.384 362.536 55.528C362.76 55.664 363.008 55.732 363.28 55.732ZM369.04 61.144C368.608 61.144 368.216 61.04 367.864 60.832C367.512 60.616 367.228 60.332 367.012 59.98C366.804 59.628 366.7 59.236 366.7 58.804C366.7 58.372 366.804 57.98 367.012 57.628C367.228 57.268 367.512 56.984 367.864 56.776C368.216 56.568 368.608 56.464 369.04 56.464C369.472 56.464 369.864 56.568 370.216 56.776C370.568 56.984 370.848 57.268 371.056 57.628C371.264 57.98 371.368 58.372 371.368 58.804C371.368 59.236 371.264 59.628 371.056 59.98C370.848 60.332 370.568 60.616 370.216 60.832C369.864 61.04 369.472 61.144 369.04 61.144ZM369.04 60.28C369.32 60.28 369.564 60.212 369.772 60.076C369.988 59.932 370.156 59.748 370.276 59.524C370.404 59.292 370.468 59.052 370.468 58.804C370.468 58.548 370.404 58.308 370.276 58.084C370.156 57.86 369.988 57.68 369.772 57.544C369.564 57.4 369.32 57.328 369.04 57.328C368.768 57.328 368.52 57.4 368.296 57.544C368.08 57.68 367.908 57.86 367.78 58.084C367.66 58.308 367.6 58.548 367.6 58.804C367.6 59.052 367.66 59.292 367.78 59.524C367.908 59.748 368.08 59.932 368.296 60.076C368.52 60.212 368.768 60.28 369.04 60.28Z" fill="white"/>
<rect opacity="0.1" x="372" y="126" width="10" height="356" rx="5" transform="rotate(90 372 126)" fill="white"/>
<rect x="352" y="126" width="10" height="336" rx="5" transform="rotate(90 352 126)" fill="url(#paint1_linear_208_4087)"/>
<path d="M21.992 116.168C21.2547 116.168 20.578 116.037 19.962 115.776C19.346 115.505 18.8093 115.132 18.352 114.656C17.904 114.171 17.554 113.601 17.302 112.948C17.05 112.295 16.924 111.576 16.924 110.792C16.924 110.008 17.05 109.289 17.302 108.636C17.554 107.983 17.904 107.413 18.352 106.928C18.8093 106.443 19.346 106.069 19.962 105.808C20.578 105.537 21.2547 105.402 21.992 105.402C22.7013 105.402 23.336 105.528 23.896 105.78C24.4653 106.032 24.9413 106.359 25.324 106.76C25.716 107.152 25.996 107.567 26.164 108.006L25.114 108.468C24.8527 107.861 24.4513 107.376 23.91 107.012C23.378 106.639 22.7387 106.452 21.992 106.452C21.2267 106.452 20.5453 106.634 19.948 106.998C19.3507 107.362 18.884 107.871 18.548 108.524C18.212 109.168 18.044 109.924 18.044 110.792C18.044 111.651 18.212 112.407 18.548 113.06C18.884 113.713 19.3507 114.222 19.948 114.586C20.5453 114.941 21.2267 115.118 21.992 115.118C22.7387 115.118 23.378 114.936 23.91 114.572C24.4513 114.208 24.8527 113.723 25.114 113.116L26.164 113.578C25.996 114.007 25.716 114.423 25.324 114.824C24.9413 115.216 24.4653 115.538 23.896 115.79C23.336 116.042 22.7013 116.168 21.992 116.168ZM28.0155 116V105.402H29.0655V116H28.0155ZM34.7287 116.168C34.0194 116.168 33.3754 116 32.7967 115.664C32.2181 115.319 31.7561 114.852 31.4107 114.264C31.0747 113.667 30.9067 112.99 30.9067 112.234C30.9067 111.487 31.0747 110.82 31.4107 110.232C31.7467 109.644 32.1994 109.182 32.7687 108.846C33.3474 108.501 34.0007 108.328 34.7287 108.328C35.4567 108.328 36.1054 108.496 36.6747 108.832C37.2534 109.168 37.7061 109.63 38.0327 110.218C38.3687 110.806 38.5367 111.478 38.5367 112.234C38.5367 112.999 38.3641 113.681 38.0187 114.278C37.6734 114.866 37.2114 115.328 36.6327 115.664C36.0634 116 35.4287 116.168 34.7287 116.168ZM34.7287 115.118C35.2327 115.118 35.6854 114.992 36.0867 114.74C36.4974 114.488 36.8194 114.143 37.0527 113.704C37.2954 113.265 37.4167 112.775 37.4167 112.234C37.4167 111.693 37.2954 111.207 37.0527 110.778C36.8194 110.349 36.4974 110.008 36.0867 109.756C35.6854 109.504 35.2327 109.378 34.7287 109.378C34.2247 109.378 33.7674 109.504 33.3567 109.756C32.9554 110.008 32.6334 110.349 32.3907 110.778C32.1481 111.207 32.0267 111.693 32.0267 112.234C32.0267 112.775 32.1481 113.265 32.3907 113.704C32.6334 114.143 32.9554 114.488 33.3567 114.74C33.7674 114.992 34.2247 115.118 34.7287 115.118ZM42.9925 116.168C42.2739 116.168 41.6439 115.986 41.1025 115.622C40.5612 115.258 40.1692 114.763 39.9265 114.138L40.8085 113.718C41.0232 114.175 41.3219 114.539 41.7045 114.81C42.0965 115.081 42.5259 115.216 42.9925 115.216C43.4405 115.216 43.8185 115.109 44.1265 114.894C44.4345 114.67 44.5885 114.381 44.5885 114.026C44.5885 113.765 44.5139 113.559 44.3645 113.41C44.2152 113.251 44.0425 113.13 43.8465 113.046C43.6505 112.962 43.4779 112.901 43.3285 112.864L42.2505 112.556C41.5599 112.36 41.0605 112.085 40.7525 111.73C40.4445 111.375 40.2905 110.965 40.2905 110.498C40.2905 110.059 40.4025 109.677 40.6265 109.35C40.8505 109.023 41.1539 108.771 41.5365 108.594C41.9192 108.417 42.3439 108.328 42.8105 108.328C43.4452 108.328 44.0192 108.496 44.5325 108.832C45.0552 109.159 45.4239 109.616 45.6385 110.204L44.7425 110.624C44.5559 110.204 44.2852 109.877 43.9305 109.644C43.5852 109.401 43.1979 109.28 42.7685 109.28C42.3485 109.28 42.0125 109.387 41.7605 109.602C41.5085 109.817 41.3825 110.087 41.3825 110.414C41.3825 110.666 41.4479 110.867 41.5785 111.016C41.7092 111.165 41.8585 111.277 42.0265 111.352C42.2039 111.427 42.3579 111.483 42.4885 111.52L43.7345 111.884C44.3412 112.061 44.8125 112.337 45.1485 112.71C45.4939 113.083 45.6665 113.522 45.6665 114.026C45.6665 114.437 45.5499 114.805 45.3165 115.132C45.0925 115.459 44.7799 115.715 44.3785 115.902C43.9772 116.079 43.5152 116.168 42.9925 116.168ZM50.9276 116.168C50.2276 116.168 49.5929 116 49.0236 115.664C48.4636 115.319 48.0203 114.847 47.6936 114.25C47.3669 113.653 47.2036 112.976 47.2036 112.22C47.2036 111.464 47.3623 110.797 47.6796 110.218C47.9969 109.63 48.4263 109.168 48.9676 108.832C49.5183 108.496 50.1343 108.328 50.8156 108.328C51.3569 108.328 51.8376 108.431 52.2576 108.636C52.6869 108.832 53.0509 109.103 53.3496 109.448C53.6483 109.784 53.8769 110.167 54.0356 110.596C54.1943 111.016 54.2736 111.45 54.2736 111.898C54.2736 111.991 54.2689 112.099 54.2596 112.22C54.2503 112.332 54.2363 112.449 54.2176 112.57H47.8756V111.59H53.6156L53.1116 112.01C53.1956 111.497 53.1349 111.039 52.9296 110.638C52.7336 110.227 52.4489 109.905 52.0756 109.672C51.7023 109.429 51.2823 109.308 50.8156 109.308C50.3489 109.308 49.9149 109.429 49.5136 109.672C49.1216 109.915 48.8136 110.255 48.5896 110.694C48.3656 111.123 48.2769 111.637 48.3236 112.234C48.2769 112.831 48.3703 113.354 48.6036 113.802C48.8463 114.241 49.1729 114.581 49.5836 114.824C50.0036 115.067 50.4516 115.188 50.9276 115.188C51.4783 115.188 51.9403 115.057 52.3136 114.796C52.6869 114.535 52.9903 114.208 53.2236 113.816L54.1196 114.292C53.9703 114.628 53.7416 114.941 53.4336 115.23C53.1256 115.51 52.7569 115.739 52.3276 115.916C51.9076 116.084 51.4409 116.168 50.9276 116.168ZM56.1249 116V108.496H57.1749V109.952L56.9369 109.896C57.1235 109.411 57.4269 109.028 57.8469 108.748C58.2762 108.468 58.7709 108.328 59.3309 108.328C59.8629 108.328 60.3389 108.449 60.7589 108.692C61.1882 108.935 61.5242 109.271 61.7669 109.7C62.0189 110.12 62.1449 110.596 62.1449 111.128V116H61.0949V111.534C61.0949 111.077 61.0109 110.689 60.8429 110.372C60.6842 110.055 60.4555 109.812 60.1569 109.644C59.8675 109.467 59.5315 109.378 59.1489 109.378C58.7662 109.378 58.4255 109.467 58.1269 109.644C57.8282 109.812 57.5949 110.059 57.4269 110.386C57.2589 110.703 57.1749 111.086 57.1749 111.534V116H56.1249ZM67.5663 116.168C66.8663 116.168 66.2316 116 65.6623 115.664C65.1023 115.319 64.6589 114.847 64.3323 114.25C64.0056 113.653 63.8423 112.976 63.8423 112.22C63.8423 111.464 64.0009 110.797 64.3183 110.218C64.6356 109.63 65.0649 109.168 65.6063 108.832C66.1569 108.496 66.7729 108.328 67.4543 108.328C67.9956 108.328 68.4763 108.431 68.8963 108.636C69.3256 108.832 69.6896 109.103 69.9883 109.448C70.2869 109.784 70.5156 110.167 70.6743 110.596C70.8329 111.016 70.9123 111.45 70.9123 111.898C70.9123 111.991 70.9076 112.099 70.8983 112.22C70.8889 112.332 70.8749 112.449 70.8563 112.57H64.5143V111.59H70.2543L69.7503 112.01C69.8343 111.497 69.7736 111.039 69.5683 110.638C69.3723 110.227 69.0876 109.905 68.7143 109.672C68.3409 109.429 67.9209 109.308 67.4543 109.308C66.9876 109.308 66.5536 109.429 66.1523 109.672C65.7603 109.915 65.4523 110.255 65.2283 110.694C65.0043 111.123 64.9156 111.637 64.9623 112.234C64.9156 112.831 65.0089 113.354 65.2423 113.802C65.4849 114.241 65.8116 114.581 66.2223 114.824C66.6423 115.067 67.0903 115.188 67.5663 115.188C68.1169 115.188 68.5789 115.057 68.9523 114.796C69.3256 114.535 69.6289 114.208 69.8623 113.816L70.7583 114.292C70.6089 114.628 70.3803 114.941 70.0723 115.23C69.7643 115.51 69.3956 115.739 68.9663 115.916C68.5463 116.084 68.0796 116.168 67.5663 116.168ZM75.3675 116.168C74.6489 116.168 74.0189 115.986 73.4775 115.622C72.9362 115.258 72.5442 114.763 72.3015 114.138L73.1835 113.718C73.3982 114.175 73.6969 114.539 74.0795 114.81C74.4715 115.081 74.9009 115.216 75.3675 115.216C75.8155 115.216 76.1935 115.109 76.5015 114.894C76.8095 114.67 76.9635 114.381 76.9635 114.026C76.9635 113.765 76.8889 113.559 76.7395 113.41C76.5902 113.251 76.4175 113.13 76.2215 113.046C76.0255 112.962 75.8529 112.901 75.7035 112.864L74.6255 112.556C73.9349 112.36 73.4355 112.085 73.1275 111.73C72.8195 111.375 72.6655 110.965 72.6655 110.498C72.6655 110.059 72.7775 109.677 73.0015 109.35C73.2255 109.023 73.5289 108.771 73.9115 108.594C74.2942 108.417 74.7189 108.328 75.1855 108.328C75.8202 108.328 76.3942 108.496 76.9075 108.832C77.4302 109.159 77.7989 109.616 78.0135 110.204L77.1175 110.624C76.9309 110.204 76.6602 109.877 76.3055 109.644C75.9602 109.401 75.5729 109.28 75.1435 109.28C74.7235 109.28 74.3875 109.387 74.1355 109.602C73.8835 109.817 73.7575 110.087 73.7575 110.414C73.7575 110.666 73.8229 110.867 73.9535 111.016C74.0842 111.165 74.2335 111.277 74.4015 111.352C74.5789 111.427 74.7329 111.483 74.8635 111.52L76.1095 111.884C76.7162 112.061 77.1875 112.337 77.5235 112.71C77.8689 113.083 78.0415 113.522 78.0415 114.026C78.0415 114.437 77.9249 114.805 77.6915 115.132C77.4675 115.459 77.1549 115.715 76.7535 115.902C76.3522 116.079 75.8902 116.168 75.3675 116.168ZM82.4906 116.168C81.7719 116.168 81.1419 115.986 80.6006 115.622C80.0593 115.258 79.6673 114.763 79.4246 114.138L80.3066 113.718C80.5213 114.175 80.8199 114.539 81.2026 114.81C81.5946 115.081 82.0239 115.216 82.4906 115.216C82.9386 115.216 83.3166 115.109 83.6246 114.894C83.9326 114.67 84.0866 114.381 84.0866 114.026C84.0866 113.765 84.0119 113.559 83.8626 113.41C83.7133 113.251 83.5406 113.13 83.3446 113.046C83.1486 112.962 82.9759 112.901 82.8266 112.864L81.7486 112.556C81.0579 112.36 80.5586 112.085 80.2506 111.73C79.9426 111.375 79.7886 110.965 79.7886 110.498C79.7886 110.059 79.9006 109.677 80.1246 109.35C80.3486 109.023 80.6519 108.771 81.0346 108.594C81.4173 108.417 81.8419 108.328 82.3086 108.328C82.9433 108.328 83.5173 108.496 84.0306 108.832C84.5533 109.159 84.9219 109.616 85.1366 110.204L84.2406 110.624C84.0539 110.204 83.7833 109.877 83.4286 109.644C83.0833 109.401 82.6959 109.28 82.2666 109.28C81.8466 109.28 81.5106 109.387 81.2586 109.602C81.0066 109.817 80.8806 110.087 80.8806 110.414C80.8806 110.666 80.9459 110.867 81.0766 111.016C81.2073 111.165 81.3566 111.277 81.5246 111.352C81.7019 111.427 81.8559 111.483 81.9866 111.52L83.2326 111.884C83.8393 112.061 84.3106 112.337 84.6466 112.71C84.9919 113.083 85.1646 113.522 85.1646 114.026C85.1646 114.437 85.0479 114.805 84.8146 115.132C84.5906 115.459 84.2779 115.715 83.8766 115.902C83.4753 116.079 83.0133 116.168 82.4906 116.168Z" fill="#F4F4F5"/>
<path d="M346.107 115L349.215 110.932L349.395 110.824C349.275 111.016 349.135 111.168 348.975 111.28C348.815 111.392 348.639 111.472 348.447 111.52C348.255 111.568 348.043 111.592 347.811 111.592C347.291 111.592 346.823 111.472 346.407 111.232C345.991 110.984 345.659 110.648 345.411 110.224C345.171 109.792 345.051 109.3 345.051 108.748C345.051 108.204 345.175 107.72 345.423 107.296C345.679 106.872 346.023 106.536 346.455 106.288C346.895 106.04 347.387 105.916 347.931 105.916C348.491 105.916 348.987 106.044 349.419 106.3C349.851 106.548 350.191 106.896 350.439 107.344C350.687 107.784 350.811 108.292 350.811 108.868C350.811 109.188 350.771 109.504 350.691 109.816C350.619 110.128 350.507 110.436 350.355 110.74C350.203 111.044 350.011 111.348 349.779 111.652L347.259 115H346.107ZM347.931 110.728C348.307 110.728 348.639 110.644 348.927 110.476C349.215 110.3 349.439 110.064 349.599 109.768C349.767 109.464 349.851 109.124 349.851 108.748C349.851 108.364 349.767 108.024 349.599 107.728C349.431 107.424 349.203 107.188 348.915 107.02C348.627 106.844 348.299 106.756 347.931 106.756C347.563 106.756 347.235 106.844 346.947 107.02C346.659 107.188 346.431 107.424 346.263 107.728C346.095 108.024 346.011 108.364 346.011 108.748C346.011 109.124 346.091 109.464 346.251 109.768C346.419 110.064 346.647 110.3 346.935 110.476C347.231 110.644 347.563 110.728 347.931 110.728ZM355.931 115.144C355.227 115.144 354.607 114.952 354.071 114.568C353.543 114.176 353.131 113.636 352.835 112.948C352.539 112.252 352.391 111.444 352.391 110.524C352.391 109.604 352.539 108.8 352.835 108.112C353.131 107.416 353.543 106.876 354.071 106.492C354.599 106.108 355.215 105.916 355.919 105.916C356.623 105.916 357.239 106.108 357.767 106.492C358.295 106.876 358.707 107.416 359.003 108.112C359.299 108.8 359.447 109.604 359.447 110.524C359.447 111.444 359.299 112.252 359.003 112.948C358.715 113.644 358.307 114.184 357.779 114.568C357.251 114.952 356.635 115.144 355.931 115.144ZM355.931 114.244C356.443 114.244 356.891 114.088 357.275 113.776C357.659 113.464 357.959 113.032 358.175 112.48C358.391 111.92 358.499 111.268 358.499 110.524C358.499 109.78 358.391 109.132 358.175 108.58C357.959 108.02 357.659 107.588 357.275 107.284C356.891 106.972 356.439 106.816 355.919 106.816C355.407 106.816 354.959 106.972 354.575 107.284C354.191 107.588 353.891 108.02 353.675 108.58C353.459 109.132 353.351 109.78 353.351 110.524C353.351 111.26 353.459 111.908 353.675 112.468C353.891 113.028 354.191 113.464 354.575 113.776C354.967 114.088 355.419 114.244 355.931 114.244ZM361.972 115L369.292 106.06H370.456L363.136 115H361.972ZM363.28 110.596C362.848 110.596 362.456 110.492 362.104 110.284C361.752 110.068 361.468 109.784 361.252 109.432C361.044 109.08 360.94 108.688 360.94 108.256C360.94 107.824 361.044 107.432 361.252 107.08C361.468 106.72 361.752 106.436 362.104 106.228C362.456 106.02 362.848 105.916 363.28 105.916C363.712 105.916 364.104 106.02 364.456 106.228C364.808 106.436 365.088 106.72 365.296 107.08C365.504 107.432 365.608 107.824 365.608 108.256C365.608 108.688 365.504 109.08 365.296 109.432C365.088 109.784 364.808 110.068 364.456 110.284C364.104 110.492 363.712 110.596 363.28 110.596ZM363.28 109.732C363.56 109.732 363.804 109.664 364.012 109.528C364.228 109.384 364.396 109.2 364.516 108.976C364.644 108.744 364.708 108.504 364.708 108.256C364.708 108 364.644 107.76 364.516 107.536C364.396 107.312 364.228 107.132 364.012 106.996C363.804 106.852 363.56 106.78 363.28 106.78C363.008 106.78 362.76 106.852 362.536 106.996C362.32 107.132 362.148 107.312 362.02 107.536C361.9 107.76 361.84 108 361.84 108.256C361.84 108.504 361.9 108.744 362.02 108.976C362.148 109.2 362.32 109.384 362.536 109.528C362.76 109.664 363.008 109.732 363.28 109.732ZM369.04 115.144C368.608 115.144 368.216 115.04 367.864 114.832C367.512 114.616 367.228 114.332 367.012 113.98C366.804 113.628 366.7 113.236 366.7 112.804C366.7 112.372 366.804 111.98 367.012 111.628C367.228 111.268 367.512 110.984 367.864 110.776C368.216 110.568 368.608 110.464 369.04 110.464C369.472 110.464 369.864 110.568 370.216 110.776C370.568 110.984 370.848 111.268 371.056 111.628C371.264 111.98 371.368 112.372 371.368 112.804C371.368 113.236 371.264 113.628 371.056 113.98C370.848 114.332 370.568 114.616 370.216 114.832C369.864 115.04 369.472 115.144 369.04 115.144ZM369.04 114.28C369.32 114.28 369.564 114.212 369.772 114.076C369.988 113.932 370.156 113.748 370.276 113.524C370.404 113.292 370.468 113.052 370.468 112.804C370.468 112.548 370.404 112.308 370.276 112.084C370.156 111.86 369.988 111.68 369.772 111.544C369.564 111.4 369.32 111.328 369.04 111.328C368.768 111.328 368.52 111.4 368.296 111.544C368.08 111.68 367.908 111.86 367.78 112.084C367.66 112.308 367.6 112.548 367.6 112.804C367.6 113.052 367.66 113.292 367.78 113.524C367.908 113.748 368.08 113.932 368.296 114.076C368.52 114.212 368.768 114.28 369.04 114.28Z" fill="white"/>
<rect opacity="0.1" x="372" y="180" width="10" height="356" rx="5" transform="rotate(90 372 180)" fill="white"/>
<rect x="352" y="180" width="10" height="336" rx="5" transform="rotate(90 352 180)" fill="url(#paint2_linear_208_4087)"/>
<path d="M17.232 170V159.57H20.816C21.4973 159.57 22.0947 159.705 22.608 159.976C23.1213 160.237 23.518 160.611 23.798 161.096C24.0873 161.572 24.232 162.127 24.232 162.762C24.232 163.397 24.0873 163.952 23.798 164.428C23.518 164.904 23.1213 165.277 22.608 165.548C22.104 165.809 21.5067 165.94 20.816 165.94H18.352V170H17.232ZM18.352 164.89H20.872C21.32 164.89 21.712 164.806 22.048 164.638C22.384 164.461 22.6453 164.213 22.832 163.896C23.0187 163.569 23.112 163.187 23.112 162.748C23.112 162.309 23.0187 161.931 22.832 161.614C22.6453 161.297 22.384 161.054 22.048 160.886C21.712 160.709 21.32 160.62 20.872 160.62H18.352V164.89ZM26.0741 170V162.496H27.1241V163.728L26.9841 163.546C27.1614 163.191 27.4274 162.911 27.7821 162.706C28.1461 162.501 28.5848 162.398 29.0981 162.398H29.5741V163.448H28.9161C28.3748 163.448 27.9408 163.616 27.6141 163.952C27.2874 164.288 27.1241 164.764 27.1241 165.38V170H26.0741ZM34.3186 170.168C33.6092 170.168 32.9652 170 32.3866 169.664C31.8079 169.319 31.3459 168.852 31.0006 168.264C30.6646 167.667 30.4966 166.99 30.4966 166.234C30.4966 165.487 30.6646 164.82 31.0006 164.232C31.3366 163.644 31.7892 163.182 32.3586 162.846C32.9372 162.501 33.5906 162.328 34.3186 162.328C35.0466 162.328 35.6952 162.496 36.2646 162.832C36.8432 163.168 37.2959 163.63 37.6226 164.218C37.9586 164.806 38.1266 165.478 38.1266 166.234C38.1266 166.999 37.9539 167.681 37.6086 168.278C37.2632 168.866 36.8012 169.328 36.2226 169.664C35.6532 170 35.0186 170.168 34.3186 170.168ZM34.3186 169.118C34.8226 169.118 35.2752 168.992 35.6766 168.74C36.0872 168.488 36.4092 168.143 36.6426 167.704C36.8852 167.265 37.0066 166.775 37.0066 166.234C37.0066 165.693 36.8852 165.207 36.6426 164.778C36.4092 164.349 36.0872 164.008 35.6766 163.756C35.2752 163.504 34.8226 163.378 34.3186 163.378C33.8146 163.378 33.3572 163.504 32.9466 163.756C32.5452 164.008 32.2232 164.349 31.9806 164.778C31.7379 165.207 31.6166 165.693 31.6166 166.234C31.6166 166.775 31.7379 167.265 31.9806 167.704C32.2232 168.143 32.5452 168.488 32.9466 168.74C33.3572 168.992 33.8146 169.118 34.3186 169.118ZM43.5344 173.08C43.0211 173.08 42.5451 173.001 42.1064 172.842C41.6771 172.683 41.3037 172.464 40.9864 172.184C40.6784 171.913 40.4404 171.596 40.2724 171.232L41.2384 170.714C41.3877 171.069 41.6537 171.377 42.0364 171.638C42.4191 171.899 42.9091 172.03 43.5064 172.03C43.9637 172.03 44.3837 171.941 44.7664 171.764C45.1491 171.587 45.4571 171.325 45.6904 170.98C45.9237 170.635 46.0404 170.21 46.0404 169.706V168.04L46.2084 168.194C45.9471 168.735 45.5597 169.155 45.0464 169.454C44.5331 169.743 43.9731 169.888 43.3664 169.888C42.6664 169.888 42.0364 169.72 41.4764 169.384C40.9164 169.048 40.4731 168.595 40.1464 168.026C39.8291 167.447 39.6704 166.808 39.6704 166.108C39.6704 165.399 39.8291 164.759 40.1464 164.19C40.4731 163.621 40.9117 163.168 41.4624 162.832C42.0224 162.496 42.6571 162.328 43.3664 162.328C43.9731 162.328 44.5237 162.468 45.0184 162.748C45.5224 163.028 45.9191 163.406 46.2084 163.882L46.0404 164.176V162.496H47.0904V169.706C47.0904 170.35 46.9364 170.924 46.6284 171.428C46.3297 171.941 45.9097 172.343 45.3684 172.632C44.8364 172.931 44.2251 173.08 43.5344 173.08ZM43.4224 168.838C43.9077 168.838 44.3464 168.717 44.7384 168.474C45.1304 168.222 45.4431 167.891 45.6764 167.48C45.9191 167.06 46.0404 166.603 46.0404 166.108C46.0404 165.613 45.9191 165.161 45.6764 164.75C45.4431 164.33 45.1304 163.999 44.7384 163.756C44.3464 163.504 43.9077 163.378 43.4224 163.378C42.9277 163.378 42.4797 163.504 42.0784 163.756C41.6771 163.999 41.3597 164.325 41.1264 164.736C40.9024 165.147 40.7904 165.604 40.7904 166.108C40.7904 166.603 40.9024 167.06 41.1264 167.48C41.3597 167.891 41.6724 168.222 42.0644 168.474C42.4657 168.717 42.9184 168.838 43.4224 168.838ZM49.2479 170V162.496H50.2979V163.728L50.1579 163.546C50.3353 163.191 50.6013 162.911 50.9559 162.706C51.3199 162.501 51.7586 162.398 52.2719 162.398H52.7479V163.448H52.0899C51.5486 163.448 51.1146 163.616 50.7879 163.952C50.4613 164.288 50.2979 164.764 50.2979 165.38V170H49.2479ZM57.3944 170.168C56.6944 170.168 56.0597 170 55.4904 169.664C54.9304 169.319 54.4871 168.847 54.1604 168.25C53.8337 167.653 53.6704 166.976 53.6704 166.22C53.6704 165.464 53.8291 164.797 54.1464 164.218C54.4637 163.63 54.8931 163.168 55.4344 162.832C55.9851 162.496 56.6011 162.328 57.2824 162.328C57.8237 162.328 58.3044 162.431 58.7244 162.636C59.1537 162.832 59.5177 163.103 59.8164 163.448C60.1151 163.784 60.3437 164.167 60.5024 164.596C60.6611 165.016 60.7404 165.45 60.7404 165.898C60.7404 165.991 60.7357 166.099 60.7264 166.22C60.7171 166.332 60.7031 166.449 60.6844 166.57H54.3424V165.59H60.0824L59.5784 166.01C59.6624 165.497 59.6017 165.039 59.3964 164.638C59.2004 164.227 58.9157 163.905 58.5424 163.672C58.1691 163.429 57.7491 163.308 57.2824 163.308C56.8157 163.308 56.3817 163.429 55.9804 163.672C55.5884 163.915 55.2804 164.255 55.0564 164.694C54.8324 165.123 54.7437 165.637 54.7904 166.234C54.7437 166.831 54.8371 167.354 55.0704 167.802C55.3131 168.241 55.6397 168.581 56.0504 168.824C56.4704 169.067 56.9184 169.188 57.3944 169.188C57.9451 169.188 58.4071 169.057 58.7804 168.796C59.1537 168.535 59.4571 168.208 59.6904 167.816L60.5864 168.292C60.4371 168.628 60.2084 168.941 59.9004 169.23C59.5924 169.51 59.2237 169.739 58.7944 169.916C58.3744 170.084 57.9077 170.168 57.3944 170.168ZM65.1957 170.168C64.477 170.168 63.847 169.986 63.3057 169.622C62.7643 169.258 62.3723 168.763 62.1297 168.138L63.0117 167.718C63.2263 168.175 63.525 168.539 63.9077 168.81C64.2997 169.081 64.729 169.216 65.1957 169.216C65.6437 169.216 66.0217 169.109 66.3297 168.894C66.6377 168.67 66.7917 168.381 66.7917 168.026C66.7917 167.765 66.717 167.559 66.5677 167.41C66.4183 167.251 66.2457 167.13 66.0497 167.046C65.8537 166.962 65.681 166.901 65.5317 166.864L64.4537 166.556C63.763 166.36 63.2637 166.085 62.9557 165.73C62.6477 165.375 62.4937 164.965 62.4937 164.498C62.4937 164.059 62.6057 163.677 62.8297 163.35C63.0537 163.023 63.357 162.771 63.7397 162.594C64.1223 162.417 64.547 162.328 65.0137 162.328C65.6483 162.328 66.2223 162.496 66.7357 162.832C67.2583 163.159 67.627 163.616 67.8417 164.204L66.9457 164.624C66.759 164.204 66.4883 163.877 66.1337 163.644C65.7883 163.401 65.401 163.28 64.9717 163.28C64.5517 163.28 64.2157 163.387 63.9637 163.602C63.7117 163.817 63.5857 164.087 63.5857 164.414C63.5857 164.666 63.651 164.867 63.7817 165.016C63.9123 165.165 64.0617 165.277 64.2297 165.352C64.407 165.427 64.561 165.483 64.6917 165.52L65.9377 165.884C66.5443 166.061 67.0157 166.337 67.3517 166.71C67.697 167.083 67.8697 167.522 67.8697 168.026C67.8697 168.437 67.753 168.805 67.5197 169.132C67.2957 169.459 66.983 169.715 66.5817 169.902C66.1803 170.079 65.7183 170.168 65.1957 170.168ZM72.3187 170.168C71.6001 170.168 70.9701 169.986 70.4287 169.622C69.8874 169.258 69.4954 168.763 69.2527 168.138L70.1347 167.718C70.3494 168.175 70.6481 168.539 71.0307 168.81C71.4227 169.081 71.8521 169.216 72.3187 169.216C72.7667 169.216 73.1447 169.109 73.4527 168.894C73.7607 168.67 73.9147 168.381 73.9147 168.026C73.9147 167.765 73.8401 167.559 73.6907 167.41C73.5414 167.251 73.3687 167.13 73.1727 167.046C72.9767 166.962 72.8041 166.901 72.6547 166.864L71.5767 166.556C70.8861 166.36 70.3867 166.085 70.0787 165.73C69.7707 165.375 69.6167 164.965 69.6167 164.498C69.6167 164.059 69.7287 163.677 69.9527 163.35C70.1767 163.023 70.4801 162.771 70.8627 162.594C71.2454 162.417 71.6701 162.328 72.1367 162.328C72.7714 162.328 73.3454 162.496 73.8587 162.832C74.3814 163.159 74.7501 163.616 74.9647 164.204L74.0687 164.624C73.8821 164.204 73.6114 163.877 73.2567 163.644C72.9114 163.401 72.5241 163.28 72.0947 163.28C71.6747 163.28 71.3387 163.387 71.0867 163.602C70.8347 163.817 70.7087 164.087 70.7087 164.414C70.7087 164.666 70.7741 164.867 70.9047 165.016C71.0354 165.165 71.1847 165.277 71.3527 165.352C71.5301 165.427 71.6841 165.483 71.8147 165.52L73.0607 165.884C73.6674 166.061 74.1387 166.337 74.4747 166.71C74.8201 167.083 74.9927 167.522 74.9927 168.026C74.9927 168.437 74.8761 168.805 74.6427 169.132C74.4187 169.459 74.1061 169.715 73.7047 169.902C73.3034 170.079 72.8414 170.168 72.3187 170.168ZM79.3707 170V159.57H82.9547C83.636 159.57 84.2333 159.705 84.7467 159.976C85.26 160.237 85.6567 160.611 85.9367 161.096C86.226 161.572 86.3707 162.127 86.3707 162.762C86.3707 163.499 86.1747 164.129 85.7827 164.652C85.4 165.175 84.8773 165.543 84.2147 165.758L86.6507 170H85.3347L82.7867 165.506L83.5427 165.94H80.4907V170H79.3707ZM80.4907 164.89H83.0107C83.4587 164.89 83.8507 164.806 84.1867 164.638C84.5227 164.461 84.784 164.213 84.9707 163.896C85.1573 163.569 85.2507 163.187 85.2507 162.748C85.2507 162.309 85.1573 161.931 84.9707 161.614C84.784 161.297 84.5227 161.054 84.1867 160.886C83.8507 160.709 83.4587 160.62 83.0107 160.62H80.4907V164.89ZM91.1776 170.168C90.4776 170.168 89.8429 170 89.2736 169.664C88.7136 169.319 88.2703 168.847 87.9436 168.25C87.6169 167.653 87.4536 166.976 87.4536 166.22C87.4536 165.464 87.6123 164.797 87.9296 164.218C88.2469 163.63 88.6763 163.168 89.2176 162.832C89.7683 162.496 90.3843 162.328 91.0656 162.328C91.6069 162.328 92.0876 162.431 92.5076 162.636C92.9369 162.832 93.3009 163.103 93.5996 163.448C93.8983 163.784 94.1269 164.167 94.2856 164.596C94.4443 165.016 94.5236 165.45 94.5236 165.898C94.5236 165.991 94.5189 166.099 94.5096 166.22C94.5003 166.332 94.4863 166.449 94.4676 166.57H88.1256V165.59H93.8656L93.3616 166.01C93.4456 165.497 93.3849 165.039 93.1796 164.638C92.9836 164.227 92.6989 163.905 92.3256 163.672C91.9523 163.429 91.5323 163.308 91.0656 163.308C90.5989 163.308 90.1649 163.429 89.7636 163.672C89.3716 163.915 89.0636 164.255 88.8396 164.694C88.6156 165.123 88.5269 165.637 88.5736 166.234C88.5269 166.831 88.6203 167.354 88.8536 167.802C89.0963 168.241 89.4229 168.581 89.8336 168.824C90.2536 169.067 90.7016 169.188 91.1776 169.188C91.7283 169.188 92.1903 169.057 92.5636 168.796C92.9369 168.535 93.2403 168.208 93.4736 167.816L94.3696 168.292C94.2203 168.628 93.9916 168.941 93.6836 169.23C93.3756 169.51 93.0069 169.739 92.5776 169.916C92.1576 170.084 91.6909 170.168 91.1776 170.168ZM96.3749 170V159.402H97.4249V170H96.3749ZM101.744 170.168C101.268 170.168 100.843 170.079 100.47 169.902C100.097 169.715 99.8028 169.463 99.5881 169.146C99.3734 168.829 99.2661 168.465 99.2661 168.054C99.2661 167.662 99.3501 167.307 99.5181 166.99C99.6861 166.663 99.9474 166.388 100.302 166.164C100.657 165.94 101.109 165.781 101.66 165.688L104.6 165.198V166.15L101.912 166.598C101.371 166.691 100.979 166.864 100.736 167.116C100.503 167.368 100.386 167.667 100.386 168.012C100.386 168.348 100.517 168.633 100.778 168.866C101.049 169.099 101.394 169.216 101.814 169.216C102.327 169.216 102.775 169.109 103.158 168.894C103.541 168.67 103.839 168.371 104.054 167.998C104.269 167.625 104.376 167.209 104.376 166.752V164.848C104.376 164.4 104.213 164.036 103.886 163.756C103.559 163.476 103.135 163.336 102.612 163.336C102.155 163.336 101.753 163.453 101.408 163.686C101.063 163.91 100.806 164.204 100.638 164.568L99.6861 164.05C99.8261 163.733 100.045 163.443 100.344 163.182C100.652 162.921 101.002 162.715 101.394 162.566C101.786 162.407 102.192 162.328 102.612 162.328C103.163 162.328 103.648 162.435 104.068 162.65C104.497 162.865 104.829 163.163 105.062 163.546C105.305 163.919 105.426 164.353 105.426 164.848V170H104.376V168.502L104.53 168.656C104.399 168.936 104.194 169.193 103.914 169.426C103.643 169.65 103.321 169.832 102.948 169.972C102.584 170.103 102.183 170.168 101.744 170.168ZM110.319 170.084C109.647 170.084 109.129 169.888 108.765 169.496C108.401 169.104 108.219 168.544 108.219 167.816V163.546H106.833V162.496H107.183C107.5 162.496 107.752 162.393 107.939 162.188C108.126 161.973 108.219 161.707 108.219 161.39V160.76H109.269V162.496H110.921V163.546H109.269V167.816C109.269 168.068 109.306 168.292 109.381 168.488C109.456 168.675 109.582 168.824 109.759 168.936C109.946 169.048 110.193 169.104 110.501 169.104C110.576 169.104 110.664 169.099 110.767 169.09C110.87 169.081 110.958 169.071 111.033 169.062V170C110.921 170.028 110.795 170.047 110.655 170.056C110.515 170.075 110.403 170.084 110.319 170.084ZM112.877 170V162.496H113.927V170H112.877ZM112.877 161.11V159.57H113.927V161.11H112.877ZM119.59 170.168C118.881 170.168 118.237 170 117.658 169.664C117.079 169.319 116.617 168.852 116.272 168.264C115.936 167.667 115.768 166.99 115.768 166.234C115.768 165.487 115.936 164.82 116.272 164.232C116.608 163.644 117.061 163.182 117.63 162.846C118.209 162.501 118.862 162.328 119.59 162.328C120.318 162.328 120.967 162.496 121.536 162.832C122.115 163.168 122.567 163.63 122.894 164.218C123.23 164.806 123.398 165.478 123.398 166.234C123.398 166.999 123.225 167.681 122.88 168.278C122.535 168.866 122.073 169.328 121.494 169.664C120.925 170 120.29 170.168 119.59 170.168ZM119.59 169.118C120.094 169.118 120.547 168.992 120.948 168.74C121.359 168.488 121.681 168.143 121.914 167.704C122.157 167.265 122.278 166.775 122.278 166.234C122.278 165.693 122.157 165.207 121.914 164.778C121.681 164.349 121.359 164.008 120.948 163.756C120.547 163.504 120.094 163.378 119.59 163.378C119.086 163.378 118.629 163.504 118.218 163.756C117.817 164.008 117.495 164.349 117.252 164.778C117.009 165.207 116.888 165.693 116.888 166.234C116.888 166.775 117.009 167.265 117.252 167.704C117.495 168.143 117.817 168.488 118.218 168.74C118.629 168.992 119.086 169.118 119.59 169.118ZM125.25 170V162.496H126.3V163.952L126.062 163.896C126.249 163.411 126.552 163.028 126.972 162.748C127.401 162.468 127.896 162.328 128.456 162.328C128.988 162.328 129.464 162.449 129.884 162.692C130.313 162.935 130.649 163.271 130.892 163.7C131.144 164.12 131.27 164.596 131.27 165.128V170H130.22V165.534C130.22 165.077 130.136 164.689 129.968 164.372C129.809 164.055 129.581 163.812 129.282 163.644C128.993 163.467 128.657 163.378 128.274 163.378C127.891 163.378 127.551 163.467 127.252 163.644C126.953 163.812 126.72 164.059 126.552 164.386C126.384 164.703 126.3 165.086 126.3 165.534V170H125.25ZM135.879 170.168C135.161 170.168 134.531 169.986 133.989 169.622C133.448 169.258 133.056 168.763 132.813 168.138L133.695 167.718C133.91 168.175 134.209 168.539 134.591 168.81C134.983 169.081 135.413 169.216 135.879 169.216C136.327 169.216 136.705 169.109 137.013 168.894C137.321 168.67 137.475 168.381 137.475 168.026C137.475 167.765 137.401 167.559 137.251 167.41C137.102 167.251 136.929 167.13 136.733 167.046C136.537 166.962 136.365 166.901 136.215 166.864L135.137 166.556C134.447 166.36 133.947 166.085 133.639 165.73C133.331 165.375 133.177 164.965 133.177 164.498C133.177 164.059 133.289 163.677 133.513 163.35C133.737 163.023 134.041 162.771 134.423 162.594C134.806 162.417 135.231 162.328 135.697 162.328C136.332 162.328 136.906 162.496 137.419 162.832C137.942 163.159 138.311 163.616 138.525 164.204L137.629 164.624C137.443 164.204 137.172 163.877 136.817 163.644C136.472 163.401 136.085 163.28 135.655 163.28C135.235 163.28 134.899 163.387 134.647 163.602C134.395 163.817 134.269 164.087 134.269 164.414C134.269 164.666 134.335 164.867 134.465 165.016C134.596 165.165 134.745 165.277 134.913 165.352C135.091 165.427 135.245 165.483 135.375 165.52L136.621 165.884C137.228 166.061 137.699 166.337 138.035 166.71C138.381 167.083 138.553 167.522 138.553 168.026C138.553 168.437 138.437 168.805 138.203 169.132C137.979 169.459 137.667 169.715 137.265 169.902C136.864 170.079 136.402 170.168 135.879 170.168ZM140.398 170V159.402H141.448V163.952L141.21 163.896C141.397 163.411 141.7 163.028 142.12 162.748C142.55 162.468 143.044 162.328 143.604 162.328C144.136 162.328 144.612 162.449 145.032 162.692C145.462 162.935 145.798 163.271 146.04 163.7C146.292 164.12 146.418 164.596 146.418 165.128V170H145.368V165.534C145.368 165.077 145.284 164.689 145.116 164.372C144.948 164.055 144.715 163.812 144.416 163.644C144.127 163.467 143.796 163.378 143.422 163.378C143.049 163.378 142.713 163.467 142.414 163.644C142.116 163.812 141.878 164.059 141.7 164.386C141.532 164.703 141.448 165.086 141.448 165.534V170H140.398ZM148.424 170V162.496H149.474V170H148.424ZM148.424 161.11V159.57H149.474V161.11H148.424ZM151.623 172.8V162.496H152.673V164.176L152.505 163.882C152.804 163.406 153.2 163.028 153.695 162.748C154.199 162.468 154.773 162.328 155.417 162.328C156.126 162.328 156.756 162.501 157.307 162.846C157.867 163.182 158.306 163.644 158.623 164.232C158.95 164.82 159.113 165.492 159.113 166.248C159.113 166.995 158.95 167.667 158.623 168.264C158.306 168.852 157.867 169.319 157.307 169.664C156.756 170 156.126 170.168 155.417 170.168C154.773 170.168 154.19 170.023 153.667 169.734C153.154 169.435 152.766 169.015 152.505 168.474L152.673 168.32V172.8H151.623ZM155.361 169.118C155.865 169.118 156.313 168.992 156.705 168.74C157.106 168.488 157.419 168.147 157.643 167.718C157.876 167.279 157.993 166.789 157.993 166.248C157.993 165.697 157.876 165.207 157.643 164.778C157.419 164.349 157.106 164.008 156.705 163.756C156.313 163.504 155.865 163.378 155.361 163.378C154.857 163.378 154.4 163.504 153.989 163.756C153.588 164.008 153.266 164.353 153.023 164.792C152.79 165.221 152.673 165.707 152.673 166.248C152.673 166.789 152.79 167.279 153.023 167.718C153.266 168.147 153.588 168.488 153.989 168.74C154.4 168.992 154.857 169.118 155.361 169.118Z" fill="#F4F4F5"/>
<path d="M346.107 169L349.215 164.932L349.395 164.824C349.275 165.016 349.135 165.168 348.975 165.28C348.815 165.392 348.639 165.472 348.447 165.52C348.255 165.568 348.043 165.592 347.811 165.592C347.291 165.592 346.823 165.472 346.407 165.232C345.991 164.984 345.659 164.648 345.411 164.224C345.171 163.792 345.051 163.3 345.051 162.748C345.051 162.204 345.175 161.72 345.423 161.296C345.679 160.872 346.023 160.536 346.455 160.288C346.895 160.04 347.387 159.916 347.931 159.916C348.491 159.916 348.987 160.044 349.419 160.3C349.851 160.548 350.191 160.896 350.439 161.344C350.687 161.784 350.811 162.292 350.811 162.868C350.811 163.188 350.771 163.504 350.691 163.816C350.619 164.128 350.507 164.436 350.355 164.74C350.203 165.044 350.011 165.348 349.779 165.652L347.259 169H346.107ZM347.931 164.728C348.307 164.728 348.639 164.644 348.927 164.476C349.215 164.3 349.439 164.064 349.599 163.768C349.767 163.464 349.851 163.124 349.851 162.748C349.851 162.364 349.767 162.024 349.599 161.728C349.431 161.424 349.203 161.188 348.915 161.02C348.627 160.844 348.299 160.756 347.931 160.756C347.563 160.756 347.235 160.844 346.947 161.02C346.659 161.188 346.431 161.424 346.263 161.728C346.095 162.024 346.011 162.364 346.011 162.748C346.011 163.124 346.091 163.464 346.251 163.768C346.419 164.064 346.647 164.3 346.935 164.476C347.231 164.644 347.563 164.728 347.931 164.728ZM355.931 169.144C355.227 169.144 354.607 168.952 354.071 168.568C353.543 168.176 353.131 167.636 352.835 166.948C352.539 166.252 352.391 165.444 352.391 164.524C352.391 163.604 352.539 162.8 352.835 162.112C353.131 161.416 353.543 160.876 354.071 160.492C354.599 160.108 355.215 159.916 355.919 159.916C356.623 159.916 357.239 160.108 357.767 160.492C358.295 160.876 358.707 161.416 359.003 162.112C359.299 162.8 359.447 163.604 359.447 164.524C359.447 165.444 359.299 166.252 359.003 166.948C358.715 167.644 358.307 168.184 357.779 168.568C357.251 168.952 356.635 169.144 355.931 169.144ZM355.931 168.244C356.443 168.244 356.891 168.088 357.275 167.776C357.659 167.464 357.959 167.032 358.175 166.48C358.391 165.92 358.499 165.268 358.499 164.524C358.499 163.78 358.391 163.132 358.175 162.58C357.959 162.02 357.659 161.588 357.275 161.284C356.891 160.972 356.439 160.816 355.919 160.816C355.407 160.816 354.959 160.972 354.575 161.284C354.191 161.588 353.891 162.02 353.675 162.58C353.459 163.132 353.351 163.78 353.351 164.524C353.351 165.26 353.459 165.908 353.675 166.468C353.891 167.028 354.191 167.464 354.575 167.776C354.967 168.088 355.419 168.244 355.931 168.244ZM361.972 169L369.292 160.06H370.456L363.136 169H361.972ZM363.28 164.596C362.848 164.596 362.456 164.492 362.104 164.284C361.752 164.068 361.468 163.784 361.252 163.432C361.044 163.08 360.94 162.688 360.94 162.256C360.94 161.824 361.044 161.432 361.252 161.08C361.468 160.72 361.752 160.436 362.104 160.228C362.456 160.02 362.848 159.916 363.28 159.916C363.712 159.916 364.104 160.02 364.456 160.228C364.808 160.436 365.088 160.72 365.296 161.08C365.504 161.432 365.608 161.824 365.608 162.256C365.608 162.688 365.504 163.08 365.296 163.432C365.088 163.784 364.808 164.068 364.456 164.284C364.104 164.492 363.712 164.596 363.28 164.596ZM363.28 163.732C363.56 163.732 363.804 163.664 364.012 163.528C364.228 163.384 364.396 163.2 364.516 162.976C364.644 162.744 364.708 162.504 364.708 162.256C364.708 162 364.644 161.76 364.516 161.536C364.396 161.312 364.228 161.132 364.012 160.996C363.804 160.852 363.56 160.78 363.28 160.78C363.008 160.78 362.76 160.852 362.536 160.996C362.32 161.132 362.148 161.312 362.02 161.536C361.9 161.76 361.84 162 361.84 162.256C361.84 162.504 361.9 162.744 362.02 162.976C362.148 163.2 362.32 163.384 362.536 163.528C362.76 163.664 363.008 163.732 363.28 163.732ZM369.04 169.144C368.608 169.144 368.216 169.04 367.864 168.832C367.512 168.616 367.228 168.332 367.012 167.98C366.804 167.628 366.7 167.236 366.7 166.804C366.7 166.372 366.804 165.98 367.012 165.628C367.228 165.268 367.512 164.984 367.864 164.776C368.216 164.568 368.608 164.464 369.04 164.464C369.472 164.464 369.864 164.568 370.216 164.776C370.568 164.984 370.848 165.268 371.056 165.628C371.264 165.98 371.368 166.372 371.368 166.804C371.368 167.236 371.264 167.628 371.056 167.98C370.848 168.332 370.568 168.616 370.216 168.832C369.864 169.04 369.472 169.144 369.04 169.144ZM369.04 168.28C369.32 168.28 369.564 168.212 369.772 168.076C369.988 167.932 370.156 167.748 370.276 167.524C370.404 167.292 370.468 167.052 370.468 166.804C370.468 166.548 370.404 166.308 370.276 166.084C370.156 165.86 369.988 165.68 369.772 165.544C369.564 165.4 369.32 165.328 369.04 165.328C368.768 165.328 368.52 165.4 368.296 165.544C368.08 165.68 367.908 165.86 367.78 166.084C367.66 166.308 367.6 166.548 367.6 166.804C367.6 167.052 367.66 167.292 367.78 167.524C367.908 167.748 368.08 167.932 368.296 168.076C368.52 168.212 368.768 168.28 369.04 168.28Z" fill="white"/>
<path d="M20.732 29.168C20.0693 29.168 19.4533 29.0467 18.884 28.804C18.324 28.5613 17.8387 28.2253 17.428 27.796C17.0267 27.3573 16.7327 26.8487 16.546 26.27L18.128 25.584C18.38 26.1813 18.744 26.6527 19.22 26.998C19.696 27.334 20.2327 27.502 20.83 27.502C21.166 27.502 21.4553 27.4507 21.698 27.348C21.95 27.236 22.1413 27.0867 22.272 26.9C22.412 26.7133 22.482 26.4893 22.482 26.228C22.482 25.92 22.3887 25.668 22.202 25.472C22.0247 25.2667 21.754 25.108 21.39 24.996L19.388 24.352C18.576 24.1 17.9647 23.722 17.554 23.218C17.1433 22.714 16.938 22.1213 16.938 21.44C16.938 20.8427 17.0827 20.3153 17.372 19.858C17.6707 19.4007 18.0813 19.046 18.604 18.794C19.136 18.5327 19.7427 18.402 20.424 18.402C21.0493 18.402 21.6233 18.514 22.146 18.738C22.6687 18.9527 23.1167 19.256 23.49 19.648C23.8727 20.0307 24.1573 20.4833 24.344 21.006L22.776 21.706C22.5707 21.1833 22.2627 20.782 21.852 20.502C21.4413 20.2127 20.9653 20.068 20.424 20.068C20.1067 20.068 19.8267 20.124 19.584 20.236C19.3413 20.3387 19.15 20.488 19.01 20.684C18.8793 20.8707 18.814 21.0947 18.814 21.356C18.814 21.6453 18.9073 21.902 19.094 22.126C19.2807 22.3407 19.5653 22.5087 19.948 22.63L21.866 23.232C22.6967 23.5027 23.3173 23.876 23.728 24.352C24.148 24.828 24.358 25.416 24.358 26.116C24.358 26.7133 24.204 27.2407 23.896 27.698C23.588 28.1553 23.1633 28.5147 22.622 28.776C22.0807 29.0373 21.4507 29.168 20.732 29.168ZM29.1105 29.084C28.2518 29.084 27.5845 28.8507 27.1085 28.384C26.6418 27.908 26.4085 27.2407 26.4085 26.382V23.022H25.0925V21.384H25.2325C25.6058 21.384 25.8951 21.286 26.1005 21.09C26.3058 20.894 26.4085 20.6093 26.4085 20.236V19.648H28.2425V21.384H29.9925V23.022H28.2425V26.284C28.2425 26.536 28.2845 26.7507 28.3685 26.928C28.4618 27.1053 28.6018 27.2407 28.7885 27.334C28.9845 27.4273 29.2318 27.474 29.5305 27.474C29.5958 27.474 29.6705 27.4693 29.7545 27.46C29.8478 27.4507 29.9365 27.4413 30.0205 27.432V29C29.8898 29.0187 29.7405 29.0373 29.5725 29.056C29.4045 29.0747 29.2505 29.084 29.1105 29.084ZM33.4243 29.168C32.8923 29.168 32.4303 29.0793 32.0383 28.902C31.6463 28.7247 31.343 28.4727 31.1283 28.146C30.9136 27.81 30.8063 27.4227 30.8063 26.984C30.8063 26.564 30.8996 26.1907 31.0863 25.864C31.273 25.528 31.5623 25.248 31.9543 25.024C32.3463 24.8 32.841 24.6413 33.4383 24.548L35.9303 24.142V25.542L33.7883 25.906C33.4243 25.9713 33.1536 26.088 32.9763 26.256C32.799 26.424 32.7103 26.6433 32.7103 26.914C32.7103 27.1753 32.8083 27.3853 33.0043 27.544C33.2096 27.6933 33.4616 27.768 33.7603 27.768C34.143 27.768 34.479 27.6887 34.7683 27.53C35.067 27.362 35.2956 27.1333 35.4543 26.844C35.6223 26.5547 35.7063 26.2373 35.7063 25.892V23.932C35.7063 23.6053 35.5756 23.3347 35.3143 23.12C35.0623 22.896 34.7263 22.784 34.3063 22.784C33.9143 22.784 33.5643 22.8913 33.2563 23.106C32.9576 23.3113 32.7383 23.5867 32.5983 23.932L31.1003 23.204C31.2496 22.8027 31.483 22.4573 31.8003 22.168C32.127 21.8693 32.5096 21.636 32.9483 21.468C33.387 21.3 33.863 21.216 34.3763 21.216C35.0016 21.216 35.5523 21.3327 36.0283 21.566C36.5043 21.79 36.873 22.1073 37.1343 22.518C37.405 22.9193 37.5403 23.3907 37.5403 23.932V29H35.8043V27.698L36.1963 27.67C36.0003 27.9967 35.767 28.272 35.4963 28.496C35.2256 28.7107 34.9176 28.8787 34.5723 29C34.227 29.112 33.8443 29.168 33.4243 29.168ZM42.2907 29.084C41.432 29.084 40.7647 28.8507 40.2887 28.384C39.822 27.908 39.5887 27.2407 39.5887 26.382V23.022H38.2727V21.384H38.4127C38.786 21.384 39.0754 21.286 39.2807 21.09C39.486 20.894 39.5887 20.6093 39.5887 20.236V19.648H41.4227V21.384H43.1727V23.022H41.4227V26.284C41.4227 26.536 41.4647 26.7507 41.5487 26.928C41.642 27.1053 41.782 27.2407 41.9687 27.334C42.1647 27.4273 42.412 27.474 42.7107 27.474C42.776 27.474 42.8507 27.4693 42.9347 27.46C43.028 27.4507 43.1167 27.4413 43.2007 27.432V29C43.07 29.0187 42.9207 29.0373 42.7527 29.056C42.5847 29.0747 42.4307 29.084 42.2907 29.084ZM44.3219 29V21.384H46.1559V29H44.3219ZM44.3219 20.53V18.57H46.1559V20.53H44.3219ZM50.4672 29.168C49.6552 29.168 48.9459 28.9767 48.3392 28.594C47.7419 28.202 47.3312 27.6747 47.1072 27.012L48.4792 26.354C48.6752 26.7833 48.9459 27.1193 49.2912 27.362C49.6459 27.6047 50.0379 27.726 50.4672 27.726C50.8032 27.726 51.0692 27.6513 51.2652 27.502C51.4612 27.3527 51.5592 27.1567 51.5592 26.914C51.5592 26.7647 51.5172 26.6433 51.4332 26.55C51.3586 26.4473 51.2512 26.3633 51.1112 26.298C50.9806 26.2233 50.8359 26.1627 50.6772 26.116L49.4312 25.766C48.7872 25.5793 48.2972 25.2947 47.9612 24.912C47.6346 24.5293 47.4712 24.0767 47.4712 23.554C47.4712 23.0873 47.5879 22.6813 47.8212 22.336C48.0639 21.9813 48.3952 21.706 48.8152 21.51C49.2446 21.314 49.7346 21.216 50.2852 21.216C51.0039 21.216 51.6386 21.3887 52.1892 21.734C52.7399 22.0793 53.1319 22.5647 53.3652 23.19L51.9652 23.848C51.8346 23.5027 51.6152 23.2273 51.3072 23.022C50.9992 22.8167 50.6539 22.714 50.2712 22.714C49.9632 22.714 49.7206 22.784 49.5432 22.924C49.3659 23.064 49.2772 23.246 49.2772 23.47C49.2772 23.61 49.3146 23.7313 49.3892 23.834C49.4639 23.9367 49.5666 24.0207 49.6972 24.086C49.8372 24.1513 49.9959 24.212 50.1732 24.268L51.3912 24.632C52.0166 24.8187 52.4972 25.0987 52.8332 25.472C53.1786 25.8453 53.3512 26.3027 53.3512 26.844C53.3512 27.3013 53.2299 27.7073 52.9872 28.062C52.7446 28.4073 52.4086 28.678 51.9792 28.874C51.5499 29.07 51.0459 29.168 50.4672 29.168ZM57.9526 29.084C57.094 29.084 56.4266 28.8507 55.9506 28.384C55.484 27.908 55.2506 27.2407 55.2506 26.382V23.022H53.9346V21.384H54.0746C54.448 21.384 54.7373 21.286 54.9426 21.09C55.148 20.894 55.2506 20.6093 55.2506 20.236V19.648H57.0846V21.384H58.8346V23.022H57.0846V26.284C57.0846 26.536 57.1266 26.7507 57.2106 26.928C57.304 27.1053 57.444 27.2407 57.6306 27.334C57.8266 27.4273 58.074 27.474 58.3726 27.474C58.438 27.474 58.5126 27.4693 58.5966 27.46C58.69 27.4507 58.7786 27.4413 58.8626 27.432V29C58.732 29.0187 58.5826 29.0373 58.4146 29.056C58.2466 29.0747 58.0926 29.084 57.9526 29.084ZM59.9838 29V21.384H61.8178V29H59.9838ZM59.9838 20.53V18.57H61.8178V20.53H59.9838ZM66.8992 29.168C66.1432 29.168 65.4619 28.9953 64.8552 28.65C64.2579 28.2953 63.7865 27.8193 63.4412 27.222C63.0959 26.6153 62.9232 25.934 62.9232 25.178C62.9232 24.422 63.0959 23.7453 63.4412 23.148C63.7865 22.5507 64.2579 22.0793 64.8552 21.734C65.4619 21.3887 66.1432 21.216 66.8992 21.216C67.4405 21.216 67.9445 21.314 68.4112 21.51C68.8779 21.6967 69.2792 21.958 69.6152 22.294C69.9605 22.6207 70.2079 23.0127 70.3572 23.47L68.7472 24.17C68.6072 23.7873 68.3692 23.4793 68.0332 23.246C67.7065 23.0127 67.3285 22.896 66.8992 22.896C66.4979 22.896 66.1385 22.994 65.8212 23.19C65.5132 23.386 65.2705 23.6567 65.0932 24.002C64.9159 24.3473 64.8272 24.744 64.8272 25.192C64.8272 25.64 64.9159 26.0367 65.0932 26.382C65.2705 26.7273 65.5132 26.998 65.8212 27.194C66.1385 27.39 66.4979 27.488 66.8992 27.488C67.3379 27.488 67.7205 27.3713 68.0472 27.138C68.3739 26.9047 68.6072 26.592 68.7472 26.2L70.3572 26.928C70.2079 27.3573 69.9652 27.7447 69.6292 28.09C69.2932 28.426 68.8919 28.692 68.4252 28.888C67.9585 29.0747 67.4499 29.168 66.8992 29.168ZM74.3668 29.168C73.5548 29.168 72.8454 28.9767 72.2388 28.594C71.6414 28.202 71.2308 27.6747 71.0068 27.012L72.3788 26.354C72.5748 26.7833 72.8454 27.1193 73.1908 27.362C73.5454 27.6047 73.9374 27.726 74.3668 27.726C74.7028 27.726 74.9688 27.6513 75.1648 27.502C75.3608 27.3527 75.4588 27.1567 75.4588 26.914C75.4588 26.7647 75.4168 26.6433 75.3328 26.55C75.2581 26.4473 75.1508 26.3633 75.0108 26.298C74.8801 26.2233 74.7354 26.1627 74.5768 26.116L73.3308 25.766C72.6868 25.5793 72.1968 25.2947 71.8608 24.912C71.5341 24.5293 71.3708 24.0767 71.3708 23.554C71.3708 23.0873 71.4874 22.6813 71.7208 22.336C71.9634 21.9813 72.2948 21.706 72.7148 21.51C73.1441 21.314 73.6341 21.216 74.1848 21.216C74.9034 21.216 75.5381 21.3887 76.0888 21.734C76.6394 22.0793 77.0314 22.5647 77.2648 23.19L75.8648 23.848C75.7341 23.5027 75.5148 23.2273 75.2068 23.022C74.8988 22.8167 74.5534 22.714 74.1708 22.714C73.8628 22.714 73.6201 22.784 73.4428 22.924C73.2654 23.064 73.1768 23.246 73.1768 23.47C73.1768 23.61 73.2141 23.7313 73.2888 23.834C73.3634 23.9367 73.4661 24.0207 73.5968 24.086C73.7368 24.1513 73.8954 24.212 74.0728 24.268L75.2908 24.632C75.9161 24.8187 76.3968 25.0987 76.7328 25.472C77.0781 25.8453 77.2508 26.3027 77.2508 26.844C77.2508 27.3013 77.1294 27.7073 76.8868 28.062C76.6441 28.4073 76.3081 28.678 75.8788 28.874C75.4494 29.07 74.9454 29.168 74.3668 29.168Z" fill="#F4F4F5"/>
<defs>
<linearGradient id="paint0_linear_208_4087" x1="125" y1="72" x2="125" y2="217.468" gradientUnits="userSpaceOnUse">
<stop stop-color="#F19B27"/>
<stop offset="0.3412" stop-color="#F3E5A5"/>
<stop offset="0.589801" stop-color="#F3E5A5"/>
<stop offset="1" stop-color="#F19B27"/>
</linearGradient>
<linearGradient id="paint1_linear_208_4087" x1="357" y1="126" x2="357" y2="595.975" gradientUnits="userSpaceOnUse">
<stop stop-color="#F19B27"/>
<stop offset="0.3412" stop-color="#F3E5A5"/>
<stop offset="0.589801" stop-color="#F3E5A5"/>
<stop offset="1" stop-color="#F19B27"/>
</linearGradient>
<linearGradient id="paint2_linear_208_4087" x1="357" y1="180" x2="357" y2="649.975" gradientUnits="userSpaceOnUse">
<stop stop-color="#F19B27"/>
<stop offset="0.3412" stop-color="#F3E5A5"/>
<stop offset="0.589801" stop-color="#F3E5A5"/>
<stop offset="1" stop-color="#F19B27"/>
</linearGradient>
</defs>
</svg>
