<svg version="1.1" id="Layer_1" xmlns="http://www.w3.org/2000/svg" xmlns:xlink="http://www.w3.org/1999/xlink" x="0px" y="0px" width="100%" viewBox="0 0 93 93" enable-background="new 0 0 93 93" xml:space="preserve">
	<path fill="#E2AE24" opacity="1.000000" stroke="none" d="
M58.531342,1.000000 
	C59.603073,1.678173 60.075493,2.687868 60.828827,2.984764 
	C72.034714,7.401078 80.793976,14.451519 85.898987,25.631756 
	C88.519684,31.371210 86.311836,34.976768 79.935234,34.991993 
	C67.436386,35.021835 54.937107,34.951721 42.438679,35.030235 
	C38.684269,35.053822 35.294827,33.643833 35.330086,29.956629 
	C35.365234,26.280207 38.789516,24.778387 42.530010,24.989517 
	C43.692867,25.055153 44.862568,24.999521 46.029133,24.999519 
	C54.693336,24.999500 63.357544,24.999510 72.046837,24.999510 
	C69.457672,15.445093 52.920055,8.305287 37.107643,11.228889 
	C22.973694,13.842154 8.477092,26.703590 12.347218,46.000443 
	C24.389084,46.000443 36.525898,46.039589 48.662167,45.975243 
	C52.055058,45.957253 54.145760,47.128113 53.980858,50.814617 
	C53.824772,54.304100 51.565353,55.044167 48.530987,55.025059 
	C37.916332,54.958214 27.300997,54.999157 16.182819,54.999157 
	C22.920681,64.697456 32.125870,69.632240 42.868549,69.690193 
	C50.615776,69.731995 56.361378,72.688393 62.214237,76.686081 
	C63.914093,77.847137 65.804489,78.729248 67.998878,79.958435 
	C67.998878,74.148293 68.137558,68.988625 67.909920,63.845165 
	C67.846001,62.401001 66.917961,60.845417 66.005592,59.625706 
	C64.819977,58.040695 63.300076,56.690941 61.841881,55.327827 
	C59.212833,52.870213 58.729546,49.337456 61.302372,47.661938 
	C63.537014,46.206657 67.277878,46.922867 70.346207,46.990734 
	C71.092651,47.007244 71.812050,48.246178 71.962646,48.385464 
	C75.292175,47.508667 78.127586,46.303169 81.004463,46.194386 
	C82.483780,46.138447 84.867920,47.750778 85.342964,49.127060 
	C85.914993,50.784290 85.590012,54.010887 84.446289,54.793018 
	C77.784874,59.348454 77.484825,65.772537 77.935501,72.799622 
	C78.265480,77.944672 78.127686,83.132889 77.926933,88.291298 
	C77.861351,89.976364 76.940865,91.628159 76.705681,93.647583 
	C74.299988,94.000000 71.599968,94.000000 68.787827,93.757858 
	C67.548828,92.610237 66.481171,91.616615 65.285545,90.813484 
	C56.988949,85.240486 48.996845,79.628662 38.254910,78.810089 
	C21.660229,77.545517 10.067698,68.300659 2.942305,53.337322 
	C2.649593,52.722630 1.663208,52.438263 1.000001,52.000000 
	C1.000000,44.312424 1.000000,36.624847 1.257277,28.808197 
	C1.903621,28.369953 2.493547,28.140558 2.652627,27.740040 
	C7.742807,14.924273 17.182922,6.963798 30.158558,2.853053 
	C30.591293,2.715960 30.726244,1.638907 31.000000,1.000000 
	C40.020897,1.000000 49.041790,1.000000 58.531342,1.000000 
z" />
</svg>
