<svg width="58" height="58" viewBox="0 0 58 58" fill="none" xmlns="http://www.w3.org/2000/svg">
<g clip-path="url(#clip0_208_4115)">
<path d="M43.1025 30.0453C43.9781 30.0553 43.9449 28.0448 42.9883 21.4776C41.9711 14.5264 41.4937 13.0301 40.5021 13.3771C39.1443 13.871 41.6869 29.9928 43.1025 30.0453Z" fill="#FCB746"/>
<path d="M12.8713 36.9976C13.0283 39.6131 13.4968 39.9225 19.3408 41.2841C25.3753 42.6968 26.5279 42.7401 26.8863 41.6311C27.5279 39.6177 26.0498 38.7314 18.6729 36.6118C13.2294 35.0512 12.7554 35.0671 12.8713 36.9976Z" fill="#FCB746"/>
<path d="M20.9955 21.9978C21.0835 23.88 21.4983 24.5425 23.8607 26.6257C30.8923 32.7783 35.4268 37.731 35.1821 34.0709C35.0924 32.5763 33.9032 31.2977 25.9177 23.8273C21.4837 19.7186 20.8943 19.479 20.9955 21.9978Z" fill="#FCB746"/>
</g>
<defs>
<clipPath id="clip0_208_4115">
<rect width="41.8491" height="41.8491" fill="white" transform="translate(20.9248 57.167) rotate(-120)"/>
</clipPath>
</defs>
</svg>
