<svg width="1440" height="1024" viewBox="0 0 1440 1024" fill="none" xmlns="http://www.w3.org/2000/svg">
<g clip-path="url(#clip0_50_1706)">
<rect width="1440" height="1024" fill="#08090B"/>
<g opacity="0.3" clip-path="url(#clip1_50_1706)">
<path d="M2300.03 -248H-869.545V2920.43H2300.03V-248Z" fill="url(#paint0_radial_50_1706)"/>
<g style="mix-blend-mode:overlay">
<path d="M908.787 -175.475C866.303 -143.66 821.154 -120.79 776.469 -91.8692C745.974 -72.1256 714.639 -56.7534 683.275 -40.3391C676.122 -36.6046 651.043 -17.7005 644.295 -28.8751C639.372 -37.0388 648.408 -52.3531 647.249 -62.1959C639.14 -131.212 536.969 -3.13895 522.316 9.71465C462.716 62.0264 403.232 115.351 342.358 164.305C313.456 187.551 285.684 213.953 256.289 235.897C241.925 246.608 207.434 282.853 190.869 273.01C191.766 256.538 205.957 248.374 205.783 233.089C167.758 241.079 127.649 281.956 93.8815 307.287C59.5929 333.052 25.6518 360.119 -7.56536 388.808C-7.73912 388.953 -7.91288 389.098 -8.05768 389.243V434.549C14.0388 423.171 35.9905 411.128 57.8842 398.854C72.2484 390.806 105.668 360.901 120.206 372.104C107.319 392.167 110.36 403.515 130.053 396.712C155.45 387.911 180.009 364.288 203.64 348.829C254.957 315.248 306.651 284.503 356.954 247.998C398.425 217.919 436.391 179.677 478.76 152.262C494.022 142.39 509.487 135.211 523.793 122.357C531.264 115.641 544.644 97.6632 554.056 99.2555C571.577 102.208 550.957 125.136 543.63 134.169C533.813 146.269 511.079 160.455 506.909 177.68C519.304 182.398 538.331 166.1 550.001 159.731C570.042 148.817 590.053 138.54 609.978 126.497C668.882 90.889 724.051 42.1091 781.015 0.0455017C827.38 -34.2018 874.469 -66.3357 920.487 -100.988C952.459 -125.074 985.212 -155.182 1018.08 -175.128C1018.26 -175.244 1018.43 -175.331 1018.6 -175.417H908.729L908.787 -175.475Z" fill="url(#paint1_linear_50_1706)"/>
</g>
<g style="mix-blend-mode:overlay">
<path d="M1315.79 -111.757C1345.53 -136.422 1371.71 -161.724 1405.51 -173.622C1407.25 -174.23 1408.9 -174.867 1410.52 -175.504H1084.23C1070.67 -162.361 1055.5 -151.968 1044.41 -130.053C1034.62 -110.715 1030.53 -95.2269 1017.62 -78.8415C1002.5 -59.6769 994.248 -52.5843 976.206 -44.7969C939.195 -28.8168 915.795 23.4371 879.566 45.9598C830.421 76.5305 778.38 85.7364 727.497 106.783C683.536 124.963 648.263 168.069 608.095 198.813C562.194 233.929 514.902 262.328 466.307 288.064C445.137 299.297 424.663 312.729 404.101 326.307C385.769 338.437 369.552 339.537 350.554 345.587C317.54 356.067 304.334 405.513 281.224 438.689C269.9 454.958 258.461 471.662 246.935 487.527C238.624 498.962 218.323 513.118 214.297 525.769C221.161 523.019 229.385 518.734 235.786 522.642C225.968 547.597 198.862 560.045 181.978 572.059C164.573 584.45 146.994 597.245 129.879 610.446C118.469 619.247 114.501 621.476 102.627 621.997C93.9974 622.373 88.7846 620.55 80.3282 626.253C70.5687 632.824 34.5425 654.739 41.7825 674.743C44.0124 673.18 47.169 672.456 49.1673 670.864C46.3292 690.028 26.3178 697.208 15.1972 702.853C6.30648 707.369 -0.672878 714.201 -8.05768 720.657V736.666C-5.2196 734.437 -2.3236 732.063 0.688242 729.573C16.761 716.315 34.5135 712.348 51.6868 703.316C55.6543 701.232 70.4529 696.889 73.3778 691.997C78.359 683.631 73.1172 675.351 75.8684 665.711C86.989 626.687 134.049 634.88 157.304 623.879C178.01 614.094 201.323 600.546 220.639 586.389C236.046 575.099 249.078 556.253 264.63 543.225C276.387 533.354 303.899 521.89 311.111 504.115C320.609 480.723 295.935 490.016 287.132 485.79C305.434 427.63 382.323 413.85 418.407 393.035C440.822 380.095 463.237 368.631 486.985 360.351C527.529 346.253 565.379 324.367 605.431 307.055C646.352 289.367 685.013 263.602 721.85 232.279C740.008 216.82 757.037 192.965 777.309 183.615C793.034 176.348 809.367 181.849 825.295 186.828C899.317 209.959 959.757 146.241 1025.15 105.654C1043.71 94.1318 1065.72 78.2385 1086.31 78.3833C1121.5 78.5859 1096.68 110.894 1094.51 136.688C1113.36 124.5 1132.42 115.381 1150.75 99.8059C1190.94 65.6165 1228.85 29.3138 1270.61 -0.967361C1279.33 -7.27835 1360.82 -59.648 1323.23 -74.1517C1313.36 -77.973 1294.59 -59.5901 1287.29 -66.7696C1274.29 -79.5363 1308.55 -105.794 1315.76 -111.757H1315.79Z" fill="url(#paint2_linear_50_1706)"/>
</g>
<g style="mix-blend-mode:overlay">
<path d="M1440 330.244C1429.98 323.933 1422.71 313.424 1423.9 294.607C1425 277.005 1431.72 259.838 1440 243.54V99.2555C1429.4 96.6211 1418.6 94.9421 1409.45 89.847C1363.11 64.0529 1414.78 3.20108 1440 -28.3539V-74.3257C1439.42 -74.1809 1438.84 -74.0651 1438.23 -73.8914C1411.18 -66.712 1385.24 -51.2529 1360.13 -35.0702C1303.45 1.40622 1253.96 59.3052 1198.04 96.3895C1172.7 113.209 1148.05 132.345 1122.63 148.73C1111.22 156.083 1077.19 173.193 1078.32 197.713C1079.48 222.841 1116.63 238.879 1128.54 243.742C1160.07 256.625 1193.9 259.462 1226.16 266.786C1242.81 270.579 1284.17 271.302 1283.67 306.1C1283.24 336.062 1246.29 364.78 1232.33 376.071C1157.99 436.257 1071.95 456.203 990.338 483.068C908.15 510.136 830.508 555.789 750.433 593.395C717.766 608.738 679.684 629.697 645.019 620.404C616.349 612.733 618.81 584.218 636.765 557.208C677.86 495.372 743.686 469.23 795.263 431.451C821.849 411.968 849.1 387.39 872.152 359.772C884.982 344.4 910.466 315.566 914.694 290.062C897.869 292.407 880.695 306.013 864.767 314.495C831.116 332.415 799.173 357.746 765.464 375.521C597.467 464.164 432.742 573.651 257.969 630.363C250.555 632.766 203.234 641.827 208.302 658.994C214.326 679.404 256.434 663.337 265.788 660.528C294.864 651.757 368.161 600.14 387.594 658.936C366.511 696.484 329.268 710.727 300.047 729.052C283.106 739.676 266.164 749.346 249.31 760.375C235.727 769.263 209.547 778.585 204.074 800.673C218.988 811.703 247.977 804.118 264.311 802.7C288.434 800.615 313.398 791.467 337.695 794.999C356.346 797.691 365.758 809.734 348.179 830.202C325.793 856.256 291.359 862.393 264.282 867.575C207.289 878.518 146.299 894.933 91.7671 858.862C60.9827 838.51 27.2442 814.192 -6.00183 820.098V1065.13C0.803769 1079.14 8.62297 1092.02 17.9771 1099.11C35.8743 1112.72 62.6623 1102.53 81.3705 1098.48C114.182 1091.38 147.978 1080.64 181.254 1082.18C222.724 1084.09 261.531 1109.68 302.075 1120.77C434.74 1157.1 580.062 1130.64 712.698 1106.55C859.41 1079.89 995.811 1020.2 1124.71 911.752C1226.45 826.177 1322.22 722.48 1419.03 625.297C1425.98 618.32 1433.02 611.517 1440.09 604.801V330.215L1440 330.244Z" fill="url(#paint3_linear_50_1706)"/>
</g>
<path d="M655.676 -9.71043C640.733 -8.55245 639.806 -7.62607 638.648 7.19608C637.489 -7.62607 636.534 -8.55245 621.619 -9.71043C636.563 -10.8684 637.489 -11.7948 638.648 -26.6169C639.806 -11.7948 640.762 -10.8684 655.676 -9.71043Z" fill="white"/>
<path d="M212.415 267.076C197.471 268.234 196.545 269.16 195.386 283.982C194.228 269.16 193.272 268.234 178.358 267.076C193.301 265.918 194.228 264.992 195.386 250.169C196.545 264.992 197.5 265.918 212.415 267.076Z" fill="white"/>
<path d="M340.881 748.564C333.409 749.143 332.946 749.606 332.367 757.017C331.788 749.606 331.324 749.143 323.853 748.564C331.324 747.985 331.788 747.522 332.367 740.111C332.946 747.522 333.409 747.985 340.881 748.564Z" fill="white"/>
<path d="M796.103 1014C792.368 1014.29 792.136 1014.52 791.846 1018.23C791.557 1014.52 791.325 1014.29 787.589 1014C791.325 1013.71 791.557 1013.48 791.846 1009.78C792.136 1013.48 792.368 1013.71 796.103 1014Z" fill="white"/>
<path d="M1358.8 409.392C1355.06 409.681 1354.83 409.913 1354.54 413.618C1354.25 409.913 1354.02 409.681 1350.28 409.392C1354.02 409.102 1354.25 408.871 1354.54 405.165C1354.83 408.871 1355.06 409.102 1358.8 409.392Z" fill="white"/>
<path d="M263.181 969.535C259.446 969.825 259.214 970.057 258.924 973.762C258.635 970.057 258.403 969.825 254.667 969.535C258.403 969.246 258.635 969.014 258.924 965.309C259.214 969.014 259.446 969.246 263.181 969.535Z" fill="white"/>
<path d="M102.425 40.1695C98.6887 40.459 98.457 40.6906 98.1674 44.3961C97.8778 40.6906 97.6461 40.459 93.9103 40.1695C97.6461 39.88 97.8778 39.6484 98.1674 35.9429C98.457 39.6484 98.6887 39.88 102.425 40.1695Z" fill="white"/>
<path d="M784.577 89.2679C780.841 89.5574 780.61 89.789 780.32 93.4945C780.031 89.789 779.799 89.5574 776.063 89.2679C779.799 88.9784 780.031 88.7468 780.32 85.0413C780.61 88.7468 780.841 88.9784 784.577 89.2679Z" fill="white"/>
<path d="M1283.18 92.3655C1279.45 92.655 1279.21 92.8867 1278.92 96.5922C1278.64 92.8867 1278.4 92.655 1274.67 92.3655C1278.4 92.076 1278.64 91.8445 1278.92 88.1389C1279.21 91.8445 1279.45 92.076 1283.18 92.3655Z" fill="white"/>
<path d="M555.909 1019.59C552.173 1019.88 551.942 1020.11 551.652 1023.82C551.362 1020.11 551.131 1019.88 547.395 1019.59C551.131 1019.3 551.362 1019.07 551.652 1015.36C551.942 1019.07 552.173 1019.3 555.909 1019.59Z" fill="white"/>
<path d="M1347.01 1002.94C1343.27 1003.23 1343.04 1003.46 1342.75 1007.17C1342.46 1003.46 1342.23 1003.23 1338.5 1002.94C1342.23 1002.65 1342.46 1002.42 1342.75 998.717C1343.04 1002.42 1343.27 1002.65 1347.01 1002.94Z" fill="white"/>
<path d="M1247.68 707.108C1232.73 708.266 1231.81 709.193 1230.65 724.015C1229.49 709.193 1228.53 708.266 1213.62 707.108C1228.56 705.95 1229.49 705.024 1230.65 690.202C1231.81 705.024 1232.76 705.95 1247.68 707.108Z" fill="white"/>
<path d="M115.051 574.317C100.282 575.446 99.3258 576.372 98.1964 591.05C97.038 576.372 96.1113 575.446 81.3417 574.317C96.1113 573.188 97.0669 572.261 98.1964 557.584C99.3548 572.261 100.282 573.188 115.051 574.317Z" fill="#EAA55A"/>
<path d="M1384.86 239.516C1370.09 240.645 1369.14 241.571 1368.01 256.249C1366.85 241.571 1365.92 240.645 1351.15 239.516C1365.92 238.387 1366.88 237.461 1368.01 222.783C1369.16 237.461 1370.09 238.387 1384.86 239.516Z" fill="#EAA55A"/>
<rect width="1448" height="210" transform="matrix(1 0 0 -1 -8 1038)" fill="url(#paint4_linear_50_1706)"/>
</g>
</g>
<defs>
<radialGradient id="paint0_radial_50_1706" cx="0" cy="0" r="1" gradientUnits="userSpaceOnUse" gradientTransform="translate(743.486 1846.06) scale(3386.32 3385.09)">
<stop stop-color="#BA7495"/>
<stop offset="0.07" stop-color="#935D7B"/>
<stop offset="0.14" stop-color="#714965"/>
<stop offset="0.22" stop-color="#533751"/>
<stop offset="0.32" stop-color="#3A2941"/>
<stop offset="0.42" stop-color="#281E35"/>
<stop offset="0.54" stop-color="#1A162C"/>
<stop offset="0.69" stop-color="#131227"/>
<stop offset="1" stop-color="#111126"/>
</radialGradient>
<linearGradient id="paint1_linear_50_1706" x1="596.511" y1="446.099" x2="342.007" y2="-438.212" gradientUnits="userSpaceOnUse">
<stop stop-color="white" stop-opacity="0"/>
<stop offset="1" stop-color="white"/>
</linearGradient>
<linearGradient id="paint2_linear_50_1706" x1="717.564" y1="337.163" x2="454.465" y2="-577.026" gradientUnits="userSpaceOnUse">
<stop stop-color="white" stop-opacity="0"/>
<stop offset="1" stop-color="white"/>
</linearGradient>
<linearGradient id="paint3_linear_50_1706" x1="1141.91" y1="959.924" x2="360.966" y2="113.94" gradientUnits="userSpaceOnUse">
<stop stop-color="white" stop-opacity="0"/>
<stop offset="1" stop-color="white"/>
</linearGradient>
<linearGradient id="paint4_linear_50_1706" x1="724" y1="0" x2="724" y2="210" gradientUnits="userSpaceOnUse">
<stop stop-color="#0A0A0C"/>
<stop offset="1" stop-color="#0A0A0C" stop-opacity="0"/>
</linearGradient>
<clipPath id="clip0_50_1706">
<rect width="1440" height="1024" fill="white"/>
</clipPath>
<clipPath id="clip1_50_1706">
<rect width="1448" height="1520" fill="white" transform="translate(-8 -248)"/>
</clipPath>
</defs>
</svg>
